<svg width="563" height="566" viewBox="0 0 563 566" fill="none" xmlns="http://www.w3.org/2000/svg">
<path d="M503.873 28.9492C497.12 23.3622 486.876 20.319 478.218 19.7056C416.837 15.357 407.881 143.655 417.288 172.328C426.695 201.001 420.6 210.416 372.259 225.417C323.919 240.418 347.109 269.301 353.002 286.192C358.895 303.083 370.561 317.352 335.321 334.135C300.081 350.919 312.327 361.317 312.327 361.317C312.327 361.317 377.316 427.793 373.727 406.51C370.137 385.227 376.64 353.09 434.908 350.649C460.005 349.598 498.438 337.625 506.948 310.752C508.93 304.495 510.309 294.937 508.801 288.46C506.71 279.476 500.813 272.396 497.538 263.94C489.907 244.233 509.046 229.801 520.06 216.63C525.81 209.754 531.557 202.701 535.96 194.861C545.102 178.583 541.68 161.126 531.725 146.121C526.951 138.926 520.317 131.291 518.235 122.709C515.999 113.49 517.948 100.894 518.48 91.4096C518.896 83.9717 519.604 76.5617 519.186 69.1051C518.409 55.2348 515.162 38.2892 503.873 28.9492Z" fill="url(#paint0_linear_129_6565)"/>
<mask id="mask0_129_6565" style="mask-type:luminance" maskUnits="userSpaceOnUse" x="310" y="19" width="232" height="392">
<path d="M503.874 28.9502C497.121 23.3632 486.877 20.32 478.219 19.7066C416.838 15.3579 407.882 143.656 417.289 172.329C426.696 201.002 420.601 210.417 372.26 225.418C323.92 240.419 347.11 269.302 353.003 286.193C358.896 303.084 370.562 317.353 335.322 334.136C300.082 350.92 312.328 361.318 312.328 361.318C312.328 361.318 377.317 427.794 373.728 406.511C370.138 385.228 376.641 353.091 434.909 350.65C460.006 349.599 498.438 337.626 506.949 310.753C508.931 304.496 510.309 294.938 508.802 288.461C506.711 279.477 500.814 272.397 497.539 263.941C489.908 244.234 509.046 229.802 520.061 216.631C525.811 209.755 531.558 202.702 535.961 194.862C545.103 178.584 541.681 161.127 531.726 146.122C526.952 138.927 520.318 131.292 518.236 122.71C516 113.491 517.949 100.895 518.481 91.4106C518.897 83.9727 519.605 76.5627 519.187 69.1061C518.41 55.2358 515.163 38.2902 503.874 28.9502Z" fill="white"/>
</mask>
<g mask="url(#mask0_129_6565)">
<g opacity="0.8">
<path d="M307.218 398.628C306.798 398.779 306.32 398.601 306.107 398.194C305.875 397.75 306.047 397.202 306.491 396.969C306.764 396.827 334.124 382.435 364.644 358.733C392.767 336.894 429.404 302.456 444.238 262.423C456.628 228.988 467.926 173.714 475.238 110.776C481.794 54.338 482.829 12.5977 480.043 4.84872C479.873 4.37695 480.118 3.85719 480.59 3.68759C481.062 3.51798 481.581 3.76271 481.751 4.23449C485.01 13.2986 482.941 60.1893 477.041 110.985C469.714 174.062 458.378 229.488 445.941 263.054C430.955 303.497 394.052 338.198 365.733 360.187C335.087 383.983 307.606 398.435 307.332 398.578C307.295 398.598 307.256 398.614 307.218 398.628Z" fill="white"/>
<path d="M475.137 121.716C474.668 121.885 474.19 121.754 474.018 121.285C473.79 120.664 450.91 59.1037 421.403 45.2047C420.949 44.9913 420.765 44.4778 420.978 44.0246C421.192 43.5709 421.737 43.3904 422.191 43.6042C452.373 57.8206 474.779 118.09 475.719 120.653C475.892 121.124 475.615 121.545 475.143 121.714C475.141 121.715 475.139 121.715 475.137 121.716Z" fill="white"/>
<path d="M463.98 193.107C463.63 193.233 463.223 193.134 462.973 192.83C462.654 192.443 462.709 191.871 463.096 191.552C463.264 191.414 480.11 177.594 500.897 165.997C528.983 150.329 550.507 145.955 564.872 152.997C565.322 153.218 565.508 153.762 565.287 154.212C565.066 154.662 564.523 154.848 564.073 154.627C531.024 138.425 464.914 192.406 464.25 192.953C464.168 193.021 464.076 193.072 463.98 193.107Z" fill="white"/>
<path d="M390.635 339.032C390.543 339.065 390.445 339.083 390.341 339.085C389.84 339.093 389.428 338.693 389.42 338.191C389.416 337.928 388.949 311.515 383.421 283.685C378.352 258.169 367.885 226.207 346.809 218.842C346.335 218.677 346.086 218.159 346.251 217.686C346.416 217.212 346.934 216.963 347.408 217.128C364.982 223.269 377.699 245.552 385.206 283.355C390.763 311.343 391.231 337.899 391.235 338.164C391.241 338.562 390.99 338.904 390.635 339.032Z" fill="white"/>
<path d="M428.137 296.36C427.77 296.492 427.345 296.375 427.101 296.046C426.803 295.643 426.888 295.074 427.291 294.776C430.213 292.616 499.157 241.93 526.044 246.77C526.537 246.859 526.865 247.331 526.776 247.824C526.687 248.317 526.215 248.646 525.722 248.557C499.597 243.854 429.079 295.711 428.37 296.236C428.297 296.29 428.219 296.331 428.137 296.36Z" fill="white"/>
</g>
</g>
<path d="M557.743 217.919C553.279 210.376 544.669 204.047 536.729 200.539C480.441 175.678 428.6 293.377 427.75 323.542C426.9 353.706 417.978 360.504 367.413 358.262C316.849 356.021 328.897 391.048 328.727 408.937C328.557 426.825 334.707 444.2 295.867 448.069C257.026 451.938 265.032 465.867 265.032 465.867C265.032 465.867 303.693 550.413 307.517 529.17C311.34 507.927 328.334 479.887 383.991 497.306C407.963 504.809 448.18 506.548 465.282 484.14C469.264 478.922 473.795 470.394 474.568 463.789C475.64 454.627 472.487 445.97 472.267 436.904C471.754 415.778 494.647 408.674 509.468 400.006C517.206 395.481 525 390.789 531.797 384.901C545.908 372.677 548.595 355.092 544.304 337.603C542.246 329.217 538.587 319.789 539.532 311.008C540.547 301.576 546.643 290.383 550.353 281.637C553.262 274.779 556.435 268.046 558.565 260.888C562.527 247.573 565.205 230.528 557.743 217.919Z" fill="url(#paint1_linear_129_6565)"/>
<mask id="mask1_129_6565" style="mask-type:luminance" maskUnits="userSpaceOnUse" x="264" y="197" width="299" height="336">
<path d="M557.743 217.92C553.279 210.377 544.669 204.048 536.729 200.54C480.441 175.679 428.6 293.378 427.75 323.543C426.9 353.707 417.978 360.505 367.413 358.263C316.849 356.022 328.897 391.049 328.727 408.938C328.557 426.826 334.707 444.201 295.867 448.07C257.026 451.939 265.032 465.868 265.032 465.868C265.032 465.868 303.693 550.414 307.517 529.171C311.34 507.928 328.334 479.888 383.991 497.307C407.963 504.81 448.18 506.548 465.282 484.141C469.264 478.923 473.795 470.395 474.568 463.79C475.64 454.628 472.487 445.971 472.267 436.905C471.754 415.779 494.647 408.675 509.468 400.007C517.206 395.482 525 390.79 531.797 384.902C545.908 372.678 548.595 355.093 544.304 337.604C542.246 329.218 538.587 319.789 539.532 311.009C540.547 301.577 546.643 290.384 550.353 281.638C553.262 274.78 556.435 268.047 558.565 260.889C562.527 247.574 565.205 230.529 557.743 217.92Z" fill="white"/>
</mask>
<g mask="url(#mask1_129_6565)">
<g opacity="0.8">
<path d="M247.599 499.248C247.152 499.248 246.763 498.918 246.701 498.464C246.633 497.967 246.98 497.509 247.477 497.441C247.781 497.399 278.397 493.114 315.138 481.138C348.991 470.102 395.12 450.093 422.625 417.441C445.597 390.17 474.933 341.981 503.11 285.229C528.376 234.339 543.474 195.411 543.474 187.176C543.474 186.675 543.88 186.269 544.382 186.269C544.883 186.269 545.289 186.675 545.289 187.176C545.289 196.809 527.476 240.233 504.735 286.036C476.497 342.912 447.075 391.234 424.014 418.611C396.226 451.598 349.758 471.765 315.669 482.874C278.779 494.896 248.029 499.197 247.723 499.239C247.682 499.245 247.64 499.248 247.599 499.248Z" fill="white"/>
<path d="M499.313 295.676C498.815 295.676 498.409 295.298 498.406 294.799C498.401 294.138 497.702 228.42 474.638 205.356C474.283 205.002 474.283 204.433 474.638 204.079C474.993 203.724 475.567 203.727 475.921 204.082C499.512 227.672 500.203 292.055 500.221 294.786C500.224 295.287 499.821 295.676 499.319 295.676C499.317 295.676 499.315 295.676 499.313 295.676Z" fill="white"/>
<path d="M464.656 358.893C464.284 358.893 463.934 358.662 463.801 358.292C463.632 357.82 463.878 357.3 464.35 357.131C464.554 357.058 485.083 349.754 508.568 345.875C540.299 340.634 562.033 343.801 573.168 355.289C573.517 355.649 573.508 356.223 573.148 356.572C572.787 356.921 572.213 356.912 571.864 356.552C546.247 330.123 465.772 358.55 464.962 358.84C464.861 358.876 464.758 358.893 464.656 358.893Z" fill="white"/>
<path d="M346.26 471.392C346.163 471.392 346.064 471.376 345.966 471.343C345.492 471.181 345.239 470.664 345.402 470.19C345.487 469.941 353.985 444.928 358.2 416.869C362.064 391.143 363.03 357.524 345.689 343.463C345.299 343.147 345.24 342.575 345.555 342.186C345.871 341.796 346.443 341.736 346.832 342.053C361.292 353.778 365.719 379.049 359.991 417.163C355.75 445.38 347.205 470.528 347.119 470.778C346.99 471.155 346.638 471.392 346.26 471.392Z" fill="white"/>
<path d="M395.99 443.928C395.6 443.928 395.239 443.674 395.122 443.281C394.977 442.801 395.25 442.295 395.73 442.151C399.21 441.107 481.239 416.739 504.901 430.392C505.336 430.642 505.485 431.197 505.234 431.631C504.983 432.066 504.428 432.215 503.994 431.964C481.002 418.699 397.096 443.636 396.252 443.889C396.164 443.916 396.077 443.928 395.99 443.928Z" fill="white"/>
</g>
</g>
<path d="M369.058 5.88441L368.409 10.5262C366.257 10.6245 364.14 10.902 362.08 11.3648L360.325 7.0344C359.847 5.85286 358.495 5.29248 357.307 5.78214L349.864 8.84827C348.673 9.3392 348.092 10.6969 348.569 11.8814L350.332 16.2666C348.529 17.4149 346.824 18.7152 345.239 20.1562L341.497 17.2556C340.488 16.4735 339.023 16.6671 338.225 17.6881L333.225 24.085C332.424 25.1098 332.593 26.5777 333.603 27.3633L337.356 30.2808C336.356 32.1576 335.517 34.1407 334.839 36.2077L330.077 35.5831C328.798 35.4154 327.607 36.3228 327.416 37.6102L326.219 45.679C326.028 46.9718 326.912 48.1572 328.194 48.3253L332.97 48.9517C333.026 51.1298 333.264 53.2728 333.688 55.3579L329.206 57.2265C327.998 57.7303 327.404 59.1202 327.88 60.3312L330.866 67.9181C331.344 69.1337 332.714 69.7086 333.925 69.2015L338.41 67.324C339.537 69.1587 340.823 70.8885 342.251 72.4961L339.263 76.3759C338.454 77.4264 338.628 78.929 339.651 79.7316L346.057 84.7568C347.082 85.5615 348.568 85.3588 349.376 84.3046L352.328 80.4504C354.214 81.455 356.209 82.2902 358.291 82.9568L357.618 87.7674C357.435 89.0842 358.333 90.29 359.627 90.4596L367.714 91.5203C369.008 91.6899 370.202 90.7588 370.382 89.4415L371.035 84.6674C373.234 84.5735 375.395 84.2892 377.497 83.8151L379.271 88.2259C379.764 89.4506 381.142 90.029 382.349 89.5173L389.892 86.3215C391.096 85.811 391.671 84.4067 391.176 83.1851L389.402 78.8059C391.244 77.6181 392.977 76.268 394.586 74.7757L398.272 77.6414C399.302 78.4423 400.779 78.241 401.571 77.192L406.51 70.6446C407.298 69.5994 407.103 68.1062 406.074 67.3089L402.421 64.4776C403.418 62.5469 404.243 60.5081 404.9 58.3866L409.467 58.9857C410.75 59.1538 411.924 58.2387 412.09 56.9422L413.126 48.8524C413.292 47.5614 412.389 46.3797 411.111 46.212L406.557 45.6146C406.463 43.4097 406.185 41.2453 405.718 39.1448L409.942 37.3764C411.129 36.8792 411.691 35.5072 411.197 34.3124L408.112 26.8549C407.619 25.6645 406.259 25.1005 405.074 25.5948L400.826 27.3658C399.669 25.549 398.359 23.8374 396.906 22.2533L399.713 18.5895C400.494 17.57 400.303 16.1111 399.287 15.3307L392.942 10.4559C391.929 9.67736 390.473 9.86968 389.691 10.8856L386.866 14.554C384.992 13.5822 383.014 12.7734 380.952 12.133L381.582 7.52637C381.755 6.25876 380.868 5.097 379.6 4.93055L371.673 3.89084C370.406 3.72544 369.235 4.61744 369.058 5.88441ZM341.111 43.4861C343.401 27.5444 358.033 16.3681 373.804 18.4366C389.575 20.505 400.652 35.0535 398.534 51.0179C396.403 67.0791 381.74 78.4754 365.796 76.3842C349.852 74.2927 338.806 59.5244 341.111 43.4861Z" fill="#D8DEE8"/>
<path d="M247.51 3.36857L246.507 10.5456C243.18 10.6975 239.906 11.1266 236.721 11.8422L234.008 5.14688C233.268 3.32017 231.179 2.45363 229.341 3.21096L217.833 7.95166C215.991 8.71067 215.094 10.8101 215.831 12.6414L218.557 19.4218C215.769 21.1971 213.133 23.2078 210.682 25.4358L204.896 20.9512C203.336 19.7418 201.071 20.0411 199.838 21.6199L192.107 31.5108C190.868 33.0953 191.129 35.3647 192.692 36.5793L198.494 41.0902C196.949 43.9922 195.65 47.0581 194.602 50.2541L187.24 49.2884C185.263 49.0292 183.422 50.4319 183.126 52.4225L181.276 64.898C180.979 66.8971 182.346 68.7297 184.328 68.9896L191.712 69.9582C191.8 73.326 192.168 76.6392 192.823 79.8631L185.894 82.7521C184.025 83.5311 183.107 85.68 183.844 87.5523L188.46 99.283C189.2 101.162 191.318 102.051 193.19 101.267L200.124 98.3645C201.866 101.201 203.855 103.876 206.062 106.361L201.443 112.36C200.193 113.984 200.46 116.308 202.043 117.549L211.947 125.318C213.533 126.562 215.831 126.249 217.079 124.619L221.644 118.66C224.559 120.213 227.645 121.505 230.863 122.535L229.823 129.973C229.539 132.009 230.929 133.873 232.929 134.136L245.433 135.776C247.433 136.038 249.279 134.598 249.558 132.561L250.567 125.18C253.967 125.035 257.309 124.595 260.559 123.862L263.302 130.682C264.063 132.576 266.195 133.47 268.061 132.679L279.723 127.737C281.585 126.948 282.474 124.777 281.709 122.888L278.966 116.117C281.813 114.28 284.494 112.193 286.981 109.886L292.68 114.317C294.273 115.555 296.557 115.244 297.78 113.622L305.417 103.498C306.636 101.883 306.334 99.5736 304.744 98.3409L299.095 93.9632C300.635 90.9781 301.913 87.8257 302.928 84.5455L309.99 85.4719C311.972 85.7319 313.787 84.3168 314.044 82.3125L315.647 69.8046C315.902 67.8087 314.507 65.9813 312.531 65.7221L305.49 64.7985C305.345 61.3896 304.915 58.0428 304.192 54.7951L310.723 52.0606C312.559 51.2919 313.428 49.1706 312.664 47.3232L307.893 35.7927C307.132 33.9524 305.029 33.0803 303.196 33.8446L296.629 36.5829C294.84 33.7739 292.814 31.1274 290.568 28.6782L294.907 23.0135C296.115 21.4372 295.82 19.1815 294.249 17.9749L284.439 10.4381C282.872 9.23421 280.621 9.53154 279.412 11.1026L275.044 16.7744C272.148 15.2718 269.089 14.0214 265.9 13.0313L266.874 5.90884C267.142 3.94893 265.77 2.15252 263.81 1.89538L251.554 0.287723C249.594 0.0303719 247.784 1.4095 247.51 3.36857ZM204.299 61.5066C207.841 36.8581 230.464 19.5779 254.848 22.7762C279.232 25.9744 296.359 48.4684 293.084 73.152C289.789 97.9848 267.119 115.606 242.467 112.372C217.815 109.138 200.735 86.3043 204.299 61.5066Z" fill="#D8DEE8"/>
<path d="M235.784 72.8728L182.175 518.458C181.371 525.139 185.976 531.128 192.426 531.768L415.714 556.282C429.392 557.132 436.881 550.144 437.725 543.04L494.008 69.3084C494.848 62.2437 488.137 55.8459 474.4 55.8457L249.082 60.5912C242.559 60.7004 236.583 66.2269 235.784 72.8728Z" fill="url(#paint2_linear_129_6565)"/>
<path d="M225.734 72.1056L171.831 519.92C171.023 526.634 175.643 532.654 182.117 533.299L413.604 556.346C420.861 557.068 427.512 551.818 428.361 544.677L484.96 68.4977C485.804 61.3966 480.473 55.6888 473.137 55.8125L239.085 59.7616C232.537 59.8721 226.538 65.4265 225.734 72.1056Z" fill="url(#paint3_linear_129_6565)"/>
<path d="M230.127 96.8071L180.166 512.02C179.411 518.293 183.738 523.907 189.798 524.496L407.503 545.658C414.25 546.314 420.432 541.413 421.223 534.766L473.529 94.8868C474.315 88.2743 469.366 82.9242 462.551 82.9968L242.612 85.3389C236.489 85.4041 230.878 90.5644 230.127 96.8071Z" fill="#D8DEE8"/>
<path d="M346.871 71.7983C346.586 74.1822 348.296 76.0903 350.695 76.06C353.096 76.0299 355.275 74.0688 355.561 71.68C355.847 69.2912 354.13 67.3833 351.728 67.4184C349.33 67.4538 347.156 69.4143 346.871 71.7983Z" fill="url(#paint4_linear_129_6565)"/>
<path d="M267.766 375.524C312.335 293.122 378.914 268.457 398.96 183.533C409.795 137.628 402.413 93.6907 389.979 57.2156L473.137 55.8125C480.474 55.6888 485.804 61.3966 484.96 68.4976L428.361 544.678C427.512 551.818 420.861 557.068 413.604 556.346L231.633 538.229C230.287 464.394 247.899 412.255 267.766 375.524Z" fill="white"/>
<path d="M5.95996 119.362C5.95996 75.5769 44.154 40.0871 89.9888 40.0928C134.468 40.098 169.572 73.7193 169.572 115.188C169.572 156.656 134.468 192.069 89.9888 194.343C44.154 196.688 5.95996 163.147 5.95996 119.362Z" fill="url(#paint5_linear_129_6565)"/>
<path d="M10.9014 115.87C10.9014 72.085 47.9907 36.5951 92.4994 36.6006C135.692 36.6058 169.781 70.2271 169.781 111.695C169.781 153.164 135.692 188.576 92.4994 190.851C47.9907 193.196 10.9014 159.654 10.9014 115.87Z" fill="url(#paint6_linear_129_6565)"/>
<g opacity="0.5">
<path d="M23.5986 115.537C23.5986 78.751 54.7594 48.9341 92.1536 48.9385C128.442 48.9431 157.082 77.1901 157.082 112.03C157.082 146.87 128.442 176.622 92.1536 178.533C54.7592 180.503 23.5986 152.323 23.5986 115.537Z" fill="white"/>
</g>
<path opacity="0.5" d="M89.5795 54.5912C125.868 54.5961 154.508 82.8426 154.508 117.682C154.508 125.968 152.872 133.956 149.916 141.36C154.494 132.445 157.082 122.47 157.082 112.03C157.082 77.1897 128.443 48.9423 92.154 48.9375C63.3132 48.9346 38.1967 66.6775 28.208 91.6679C39.5203 69.6979 62.9652 54.5883 89.5795 54.5912Z" fill="white"/>
<path d="M61.1484 106.533V138.639C61.1484 147.922 68.9582 155.244 78.562 154.994L102.376 154.372C111.864 154.125 119.532 146.478 119.532 137.293V105.524L61.1484 106.533ZM83.0801 139.725L87.506 126.315C85.6105 125.336 84.3254 123.409 84.3254 121.164C84.3254 117.868 87.0894 115.144 90.4947 115.079C93.8958 115.015 96.6501 117.629 96.6501 120.917C96.6501 123.158 95.3705 125.134 93.4802 126.19L97.8895 139.38L83.0801 139.725Z" fill="white"/>
<path d="M112.763 102.743C110.237 102.785 108.188 100.829 108.188 98.3751C108.188 88.9381 100.265 81.3622 90.4949 81.4874C80.6903 81.6132 72.688 89.443 72.688 98.9408C72.688 101.411 70.6105 103.449 68.0452 103.491C65.4775 103.534 63.3945 101.563 63.3945 99.0889C63.3945 84.6341 75.5847 72.7374 90.4947 72.5701C105.324 72.4039 117.331 83.9148 117.331 98.2291C117.332 100.68 115.287 102.7 112.763 102.743Z" fill="white"/>
<path d="M167.918 285.87C167.918 285.87 166.299 279.797 167.446 278.245C168.593 276.693 175.611 270.485 174.936 272.509C174.261 274.534 173.249 275.883 173.249 275.883C173.249 275.883 177.028 277.638 174.599 280.269C172.17 282.901 171.359 283.508 171.224 285.87C171.09 288.232 169.538 289.042 167.918 285.87Z" fill="url(#paint7_linear_129_6565)"/>
<path d="M100.506 548.014C100.506 548.014 99.6483 553.266 99.7577 555.135C99.8667 557.005 120.61 557.96 120.82 556.56C121.029 555.16 117.391 552.933 114.83 552.147C112.269 551.361 104.774 549.264 104.774 549.264L100.506 548.014Z" fill="url(#paint8_linear_129_6565)"/>
<path d="M105.542 542.777L104.88 549.308C104.88 549.308 102.47 550.9 100.347 549.671L99.2852 542.562L105.542 542.777Z" fill="url(#paint9_linear_129_6565)"/>
<path d="M63.496 556.528C63.496 556.528 62.6377 561.781 62.7469 563.65C62.8561 565.519 83.5999 566.475 83.8093 565.074C84.0189 563.674 80.3804 561.447 77.8197 560.661C75.2591 559.875 67.7641 557.778 67.7641 557.778L63.496 556.528Z" fill="url(#paint10_linear_129_6565)"/>
<path d="M68.531 551.292L67.8692 557.823C67.8692 557.823 65.4598 559.415 63.3366 558.186L62.2744 551.077L68.531 551.292Z" fill="url(#paint11_linear_129_6565)"/>
<path d="M101.777 372.277C104.175 377.138 106.573 382 108.97 386.861C110.899 414.602 111.857 444.767 111.241 477.027C110.784 501.029 109.501 523.765 107.658 545.108C104.407 544.959 101.156 544.809 97.9053 544.66C93.2042 535.33 87.6548 521.195 87.1441 503.746C86.6113 485.546 92.1293 483.13 91.7794 465.703C91.3257 443.117 81.8544 437.09 76.8084 409.922C74.8788 399.532 73.5794 385.961 75.1237 369.497C84.0084 370.423 92.8923 371.351 101.777 372.277Z" fill="url(#paint12_linear_129_6565)"/>
<path opacity="0.3" d="M75.1238 369.497C79.9219 369.997 84.7198 370.498 89.5182 370.999C98.1551 386.029 100.567 401.674 99.0509 408.593C96.9067 418.384 91.2344 421.52 91.5463 431.35C91.8548 441.076 97.5851 443.598 101.22 455.061C103.736 462.998 103.073 470.296 101.641 484.567C98.7578 513.314 91.816 522.105 97.6308 531.53C99.283 534.208 102.26 537.398 108.092 539.833C107.95 541.595 107.809 543.364 107.658 545.108C104.408 544.96 101.156 544.809 97.9054 544.661C93.2042 535.33 87.6549 521.195 87.1442 503.747C86.6114 485.546 92.1292 483.129 91.7794 465.703C91.3258 443.117 81.8545 437.091 76.8084 409.922C74.8786 399.532 73.5795 385.962 75.1238 369.497Z" fill="url(#paint13_linear_129_6565)"/>
<path d="M88.8771 381.029C84.3763 405.572 80.4008 431.84 77.2987 459.698C73.5535 493.334 71.5546 525.045 70.7687 554.487C67.2005 554.589 63.6323 554.689 60.0639 554.79C46.0032 526.974 45.144 508.115 47.1715 495.837C47.9528 491.105 50.0745 481.828 50.5589 467.963C50.8965 458.298 50.2799 450.942 49.5095 442.1C47.8211 422.713 45.7718 418.481 45.4774 403.652C45.2007 389.735 45.1436 382.693 49.1163 378.583C59.5829 367.754 86.8116 380.07 88.8771 381.029Z" fill="url(#paint14_linear_129_6565)"/>
<path d="M166.051 284.934C168.424 284.768 170.797 284.603 173.17 284.437C178.768 307.059 174.753 329.004 162.117 337.074C142.377 349.683 105.69 325.927 97.7392 300.061C94.2495 288.707 95.0441 272.322 102.018 269.138C103.954 268.254 106.958 268.117 113.467 271.772C132.904 282.684 133.415 303.309 143.296 305.056C147.69 305.833 154.784 303.032 166.051 284.934Z" fill="url(#paint15_linear_129_6565)"/>
<path d="M111.702 391.838C115.121 386.165 110.827 380.694 109.849 369.946C108.741 357.765 113.434 355.737 118.074 335.55C121.16 322.125 124.123 309.236 120.587 294.149C118.892 286.918 116.018 274.655 105.868 268.731C100.631 265.674 93.4793 265.98 79.3906 266.717C61.9682 267.628 53.2571 268.084 46.7604 271.505C45.8095 272.006 26.0452 282.756 24.6848 300.28C23.3 318.115 42.7234 320.512 45.3138 344.296C46.4768 354.973 44.4037 371.394 43.0595 382.045C41.7687 392.272 40.8803 394.891 42.8985 397.987C47.7627 405.45 62.6546 403.322 92.4387 399.07C104.122 397.401 109.151 396.071 111.702 391.838Z" fill="url(#paint16_linear_129_6565)"/>
<path d="M66.3848 340.47C65.1254 345.105 60.596 348.568 57.443 359.843C56.7622 362.278 51.9138 379.614 58.203 383.881C61.8358 386.346 65.0968 381.676 73.9132 381.067C89.1908 380.01 96.4688 392.85 106.449 389.344C108.18 388.734 110.466 387.438 112.748 384.457C113.203 387.143 113.125 389.476 111.701 391.838C109.15 396.071 104.122 397.4 92.4387 399.069C62.6546 403.322 47.7627 405.449 42.8985 397.986C40.8803 394.89 41.7685 392.271 43.0595 382.045C44.4037 371.394 46.4768 354.972 45.3138 344.295C42.7232 320.511 23.2998 318.114 24.6849 300.279C25.055 295.511 26.8089 291.265 29.1543 287.57C53.794 297.542 70.3436 325.903 66.3848 340.47Z" fill="url(#paint17_linear_129_6565)"/>
<path d="M35.2637 375.553L40.1933 378.701C41.0786 377.679 43.1277 375.616 46.3275 374.912C49.9323 374.12 54.0705 375.256 54.1667 376.407C54.2439 377.329 51.7241 378.258 51.3346 378.402C48.1893 379.563 45.8555 378.599 44.5839 379.863C44.1342 380.311 43.5736 381.142 42.2848 381.913C41.9464 382.115 41.5916 382.294 41.4048 382.367C39.3055 383.183 35.7043 379.528 35.3946 379.209L35.2637 375.553Z" fill="url(#paint18_linear_129_6565)"/>
<path d="M49.8279 310.896C53.394 302.355 55.8648 289.278 50.2321 269.857C13.1175 284.482 -5.81095 319.151 1.57985 346.634C7.67233 369.291 29.8384 380.326 34.783 382.648C35.9334 380.029 37.0842 377.411 38.2346 374.792C32.5045 368.411 26.0474 358.976 26.9606 348.209C28.2266 333.283 42.6079 328.188 49.8279 310.896Z" fill="url(#paint19_linear_129_6565)"/>
<path d="M78.4784 249.146C78.4784 249.146 78.1853 255.639 76.1699 260.501C74.3486 264.895 64.7692 267.658 62.8276 268.639C60.8855 269.619 66.4654 272.487 72.0689 273.05C77.6721 273.613 93.6742 272.341 96.5589 270.217C99.4434 268.093 94.2408 268.252 90.2413 266.784C86.2419 265.316 83.9293 257.494 84.6353 253.944C85.3411 250.393 78.4784 249.146 78.4784 249.146Z" fill="url(#paint20_linear_129_6565)"/>
<path d="M87.3407 246.793C90.2482 243.936 90.6541 243.602 90.9708 242.615C92.2416 238.652 89.1677 233.224 85.1359 231.888C84.9261 231.819 82.2223 230.953 81.1902 232.126C80.3135 233.122 81.6032 234.498 80.9901 236.418C80.4158 238.216 78.8576 238.35 75.9699 240.707C73.5911 242.648 72.1126 243.855 71.7715 245.552C71.0683 249.052 75.3048 254.124 79.0552 253.986C80.4038 253.937 80.7706 253.248 87.3407 246.793Z" fill="url(#paint21_linear_129_6565)"/>
<path d="M79.422 254.527C79.422 254.527 82.5126 258.026 87.2206 256.87C91.4359 255.834 90.3604 246.159 87.2756 244.613C86.2466 244.098 84.3765 244.141 82.9702 244.818C82.1395 245.219 81.9086 245.635 80.5386 246.263C79.2752 246.841 78.8745 246.761 78.5347 247.169C78.1092 247.679 77.9263 248.775 79.2587 251.423C78.2986 250.744 77.2658 250.602 76.632 251.051C76.5308 251.123 76.2732 251.374 76.1623 251.705C75.7604 252.904 77.0059 254.121 79.422 254.527Z" fill="url(#paint22_linear_129_6565)"/>
<path d="M431.942 123.527L433.03 129.399H433.03L410.633 129.452L216.284 129.913C211.285 129.925 206.686 134.057 206.001 139.144L159.606 449.214C158.916 454.346 166.904 462.18 171.875 462.564L258.098 469.19V469.086L387.072 478.981C387.074 478.981 387.077 478.981 387.079 478.981L387.392 479.111C392.899 479.536 397.951 475.54 398.666 470.119C398.666 470.117 398.666 470.142 398.667 470.14L442.115 139.087C442.819 133.715 437.48 123.512 431.942 123.527Z" fill="url(#paint23_linear_129_6565)"/>
<path d="M394.269 463.667C393.557 469.089 388.506 473.142 383 472.719L167.262 456.154C162.295 455.772 158.836 451.302 159.527 446.17L201.703 132.803C202.387 127.717 206.984 123.584 211.98 123.57L428.935 122.974C434.472 122.959 438.399 127.299 437.694 132.67L394.269 463.667Z" fill="url(#paint24_linear_129_6565)"/>
<path d="M397.134 291.333C396.781 294.019 394.272 296.021 391.532 295.921L201.657 288.992C199.151 288.9 197.388 286.836 197.732 284.272L201.465 256.602C201.81 254.04 204.097 252.305 206.606 252.375L396.646 257.653C399.39 257.729 401.333 259.667 400.98 262.351L397.134 291.333Z" fill="white"/>
<path d="M389.781 347.553C389.427 350.243 386.916 352.539 384.178 352.404L194.447 343.031C191.942 342.907 190.199 340.511 190.545 337.942L194.307 309.739C194.652 307.173 196.961 304.974 199.467 305.075L389.313 312.732C392.053 312.842 393.991 315.321 393.637 318.009L389.781 347.553Z" fill="white"/>
<path opacity="0.1" d="M400.996 262.238C400.547 262.093 400.061 262.013 399.547 261.999L209.502 256.724C206.995 256.652 204.706 258.391 204.365 260.948L200.626 288.618C200.619 288.69 200.612 288.756 200.605 288.828C198.677 288.285 197.439 286.459 197.728 284.271L201.467 256.601C201.808 254.043 204.097 252.305 206.604 252.377L396.649 257.652C399.344 257.731 401.278 259.607 400.996 262.238Z" fill="url(#paint25_linear_129_6565)"/>
<path opacity="0.1" d="M393.679 317.389C393.222 317.208 392.729 317.099 392.208 317.078L202.366 309.419C199.859 309.318 197.548 311.52 197.207 314.085L193.44 342.291C193.418 342.472 193.403 342.646 193.403 342.827C191.476 342.204 190.252 340.132 190.541 337.944L194.309 309.738C194.65 307.173 196.961 304.971 199.468 305.072L389.31 312.73C391.846 312.839 393.686 314.955 393.679 317.389Z" fill="url(#paint26_linear_129_6565)"/>
<path d="M339.321 393.121C339.882 388.876 336.881 384.966 332.616 384.721L234.399 379.081C230.332 378.847 226.574 382.272 226.021 386.406L221.968 416.956C221.414 421.094 224.237 425.055 228.301 425.333L326.468 432.049C330.731 432.341 334.658 428.741 335.219 424.492L339.321 393.121Z" fill="url(#paint27_linear_129_6565)"/>
<path d="M346.737 187.296C345.444 197.062 340.426 205.877 333.294 212.36C325.607 219.352 315.481 223.606 304.953 223.403C294.475 223.201 285.657 218.623 279.994 211.475C274.771 204.887 272.213 196.107 273.495 186.505C276.16 166.53 294.513 150.381 314.654 150.429C334.984 150.477 349.428 166.979 346.737 187.296Z" fill="url(#paint28_linear_129_6565)"/>
<path d="M327.152 176.196C325.991 184.946 317.915 191.956 309.147 191.851C300.414 191.747 294.298 184.62 295.455 175.934C296.611 167.249 304.606 160.244 313.343 160.284C322.116 160.325 328.313 167.448 327.152 176.196Z" fill="white"/>
<path d="M333.294 212.36C325.607 219.352 315.481 223.606 304.953 223.403C294.475 223.202 285.657 218.624 279.994 211.476C286.476 202.445 297.164 196.441 308.517 196.589C319.931 196.738 329.13 203.062 333.294 212.36Z" fill="white"/>
<path opacity="0.4" d="M437.694 132.67L394.269 463.667C393.558 469.088 388.184 473.118 382.68 472.695L253.106 462.746C246.95 456.444 241.881 448.88 238.265 439.806C236.488 435.355 235.187 430.553 234.324 425.504C231.918 411.528 232.85 395.641 236.359 380.045C239.056 368.04 243.285 356.188 248.7 345.495C253.029 336.945 258.123 329.128 263.81 322.559C267.905 317.831 272.334 313.236 277.006 308.731C282.639 303.295 288.626 297.986 294.801 292.728C309.191 280.468 324.601 268.48 338.869 255.82C371.788 226.616 398.495 193.986 392.069 147.427C391.864 145.961 389.857 134.73 387.295 123.088L428.614 122.975C434.148 122.959 438.398 127.301 437.694 132.67Z" fill="white"/>
<defs>
<linearGradient id="paint0_linear_129_6565" x1="378.126" y1="405.834" x2="531.819" y2="-9.25771" gradientUnits="userSpaceOnUse">
<stop offset="0.0036" stop-color="#0B74EE"/>
<stop offset="1" stop-color="#0B74EE"/>
</linearGradient>
<linearGradient id="paint1_linear_129_6565" x1="264.35" y1="364.855" x2="562.466" y2="364.855" gradientUnits="userSpaceOnUse">
<stop stop-color="#0B74EE"/>
<stop offset="0.275" stop-color="#4E73E0"/>
<stop offset="0.42" stop-color="#7172D8"/>
</linearGradient>
<linearGradient id="paint2_linear_129_6565" x1="340.856" y1="294.575" x2="428.852" y2="304.175" gradientUnits="userSpaceOnUse">
<stop stop-color="#444B8C"/>
<stop offset="0.9964" stop-color="#26264F"/>
</linearGradient>
<linearGradient id="paint3_linear_129_6565" x1="263.322" y1="72.7635" x2="480.911" y2="813.527" gradientUnits="userSpaceOnUse">
<stop stop-color="#444B8C"/>
<stop offset="0.9964" stop-color="#26264F"/>
</linearGradient>
<linearGradient id="paint4_linear_129_6565" x1="344.858" y1="54.5182" x2="600.584" y2="747.109" gradientUnits="userSpaceOnUse">
<stop stop-color="#FFC444"/>
<stop offset="0.9964" stop-color="#F36F56"/>
</linearGradient>
<linearGradient id="paint5_linear_129_6565" x1="-1889.34" y1="1981.56" x2="-1714.42" y2="1816.62" gradientUnits="userSpaceOnUse">
<stop stop-color="#311944"/>
<stop offset="1" stop-color="#893976"/>
</linearGradient>
<linearGradient id="paint6_linear_129_6565" x1="37.1786" y1="161.972" x2="177.346" y2="34.7742" gradientUnits="userSpaceOnUse">
<stop stop-color="#0B74EE"/>
<stop offset="1" stop-color="#FB6FBB"/>
</linearGradient>
<linearGradient id="paint7_linear_129_6565" x1="179.192" y1="272.577" x2="151.416" y2="300.849" gradientUnits="userSpaceOnUse">
<stop stop-color="#FFC444"/>
<stop offset="0.9964" stop-color="#F36F56"/>
</linearGradient>
<linearGradient id="paint8_linear_129_6565" x1="110.342" y1="541.13" x2="110.576" y2="478.409" gradientUnits="userSpaceOnUse">
<stop stop-color="#0B74EE"/>
<stop offset="0.9964" stop-color="#0B74EE"/>
</linearGradient>
<linearGradient id="paint9_linear_129_6565" x1="104.129" y1="561.285" x2="101.142" y2="528.875" gradientUnits="userSpaceOnUse">
<stop stop-color="#FFC444"/>
<stop offset="0.9964" stop-color="#F36F56"/>
</linearGradient>
<linearGradient id="paint10_linear_129_6565" x1="73.3639" y1="540.992" x2="73.5979" y2="478.271" gradientUnits="userSpaceOnUse">
<stop stop-color="#0B74EE"/>
<stop offset="0.9964" stop-color="#0B74EE"/>
</linearGradient>
<linearGradient id="paint11_linear_129_6565" x1="66.6516" y1="564.738" x2="63.665" y2="532.328" gradientUnits="userSpaceOnUse">
<stop stop-color="#FFC444"/>
<stop offset="0.9964" stop-color="#F36F56"/>
</linearGradient>
<linearGradient id="paint12_linear_129_6565" x1="102.995" y1="397.979" x2="80.0047" y2="515.514" gradientUnits="userSpaceOnUse">
<stop stop-color="#311944"/>
<stop offset="1" stop-color="#893976"/>
</linearGradient>
<linearGradient id="paint13_linear_129_6565" x1="114.468" y1="455.453" x2="79.9281" y2="458.221" gradientUnits="userSpaceOnUse">
<stop stop-color="#311944"/>
<stop offset="1" stop-color="#893976"/>
</linearGradient>
<linearGradient id="paint14_linear_129_6565" x1="95.3635" y1="461.949" x2="42.9292" y2="466.152" gradientUnits="userSpaceOnUse">
<stop stop-color="#311944"/>
<stop offset="1" stop-color="#893976"/>
</linearGradient>
<linearGradient id="paint15_linear_129_6565" x1="136.78" y1="288.885" x2="97.9869" y2="538.024" gradientUnits="userSpaceOnUse">
<stop stop-color="#0B74EE" stop-opacity="0.717647"/>
<stop offset="0.9964" stop-color="#0B74EE"/>
</linearGradient>
<linearGradient id="paint16_linear_129_6565" x1="54.2738" y1="562.353" x2="35.511" y2="813.794" gradientUnits="userSpaceOnUse">
<stop stop-color="#0B74EE"/>
<stop offset="0.9964" stop-color="#0B74EE"/>
</linearGradient>
<linearGradient id="paint17_linear_129_6565" x1="-9.5168" y1="476.62" x2="94.0383" y2="299.238" gradientUnits="userSpaceOnUse">
<stop stop-color="#0B74EE"/>
<stop offset="0.9964" stop-color="#0B74EE"/>
</linearGradient>
<linearGradient id="paint18_linear_129_6565" x1="27.192" y1="353.975" x2="49.0324" y2="383.478" gradientUnits="userSpaceOnUse">
<stop stop-color="#FFC444"/>
<stop offset="0.9964" stop-color="#F36F56"/>
</linearGradient>
<linearGradient id="paint19_linear_129_6565" x1="8.43159" y1="558.932" x2="-10.3313" y2="810.374" gradientUnits="userSpaceOnUse">
<stop stop-color="#0B74EE"/>
<stop offset="0.9964" stop-color="#0B74EE"/>
</linearGradient>
<linearGradient id="paint20_linear_129_6565" x1="89.2147" y1="280.455" x2="68.1892" y2="254.295" gradientUnits="userSpaceOnUse">
<stop stop-color="#FFC444"/>
<stop offset="0.9964" stop-color="#F36F56"/>
</linearGradient>
<linearGradient id="paint21_linear_129_6565" x1="73.227" y1="270.847" x2="84.3709" y2="234.187" gradientUnits="userSpaceOnUse">
<stop stop-color="#444B8C"/>
<stop offset="0.9964" stop-color="#3E4177"/>
</linearGradient>
<linearGradient id="paint22_linear_129_6565" x1="101.647" y1="258.054" x2="70.3014" y2="244.102" gradientUnits="userSpaceOnUse">
<stop stop-color="#FFC444"/>
<stop offset="0.9964" stop-color="#F36F56"/>
</linearGradient>
<linearGradient id="paint23_linear_129_6565" x1="159.564" y1="301.335" x2="442.177" y2="301.335" gradientUnits="userSpaceOnUse">
<stop stop-color="#311944"/>
<stop offset="1" stop-color="#893976"/>
</linearGradient>
<linearGradient id="paint24_linear_129_6565" x1="331.383" y1="857.183" x2="297.685" y2="273.479" gradientUnits="userSpaceOnUse">
<stop offset="0.0036" stop-color="#F36F56"/>
<stop offset="1" stop-color="#0B74EE"/>
</linearGradient>
<linearGradient id="paint25_linear_129_6565" x1="197.686" y1="270.601" x2="401.023" y2="270.601" gradientUnits="userSpaceOnUse">
<stop offset="0.0036" stop-color="#0B74EE"/>
<stop offset="0.53" stop-color="#0B74EE"/>
<stop offset="1" stop-color="#0B74EE"/>
</linearGradient>
<linearGradient id="paint26_linear_129_6565" x1="190.499" y1="323.948" x2="393.679" y2="323.948" gradientUnits="userSpaceOnUse">
<stop offset="0.0036" stop-color="#0B74EE" stop-opacity="0.454902"/>
<stop offset="1" stop-color="#FFC444"/>
</linearGradient>
<linearGradient id="paint27_linear_129_6565" x1="290.367" y1="343.643" x2="244.947" y2="631.672" gradientUnits="userSpaceOnUse">
<stop offset="0.0036" stop-color="#0B74EE"/>
<stop offset="1" stop-color="#0B74EE"/>
</linearGradient>
<linearGradient id="paint28_linear_129_6565" x1="305.306" y1="43.7549" x2="315.006" y2="332.603" gradientUnits="userSpaceOnUse">
<stop offset="0.0036" stop-color="#0B74EE"/>
<stop offset="1" stop-color="#FFC444"/>
</linearGradient>
</defs>
</svg>
