<svg width="496" height="492" viewBox="0 0 496 492" fill="none" xmlns="http://www.w3.org/2000/svg">
<g id="Illustration">
<g id="Group">
<path id="Vector" opacity="0.3" d="M435.686 422.979C425.578 433.537 416.014 440.346 408.457 445.726C319.632 508.961 214.529 490.528 192.192 486.026C159.207 479.379 95.4469 466.53 49.3498 412.744C-20.3914 331.37 -9.53164 203.168 44.5642 118.54C54.4592 103.06 106.728 17.143 212.963 3.36456C277.255 -4.97398 352.199 11.8438 406.472 56.9584C520.395 151.658 512.284 342.968 435.686 422.979Z" fill="url(#paint0_linear_130_603)"/>
<g id="Group_2">
<g id="Group_3">
<path id="Vector_2" opacity="0.81" d="M250.149 471.816C250.149 471.816 347.143 225.719 491.235 198.835C493.791 198.358 496.121 200.411 495.995 203.02C494.539 233.376 476.081 394.032 250.149 471.816Z" fill="url(#paint1_linear_130_603)"/>
<path id="Vector_3" opacity="0.62" d="M465.347 238.751C457.989 249.296 450.28 259.565 442.463 269.756C440.512 272.306 438.517 274.821 436.546 277.355C434.56 279.877 432.615 282.433 430.594 284.927L424.552 292.426C422.529 294.918 420.548 297.446 418.475 299.897C414.359 304.823 410.281 309.783 406.131 314.682L393.553 329.267C385.02 338.859 376.492 348.459 367.697 357.813L361.151 364.876C358.996 367.256 356.71 369.51 354.495 371.834L341.135 385.71L327.431 399.246C325.141 401.497 322.874 403.772 320.54 405.976L313.471 412.517C308.749 416.868 304.075 421.274 299.273 425.535L284.674 438.099L281.008 441.219C279.775 442.247 278.578 443.317 277.317 444.31L269.775 450.297C267.269 452.301 264.726 454.26 262.204 456.243C259.679 458.222 257.151 460.197 254.608 462.151C254.413 462.3 254.135 462.263 253.986 462.068C253.842 461.879 253.872 461.612 254.048 461.46L254.061 461.449C256.49 459.354 258.934 457.281 261.382 455.212C263.832 453.145 266.262 451.056 268.728 449.012L276.103 442.854C278.534 440.769 280.891 438.595 283.303 436.488L297.745 423.811L311.89 410.8L318.968 404.3C320.151 403.219 321.277 402.079 322.436 400.974L325.906 397.649L339.783 384.343C348.808 375.242 357.985 366.281 366.7 356.87C371.102 352.207 375.556 347.593 379.808 342.791C384.096 338.022 388.423 333.288 392.679 328.491L405.301 313.968C409.465 309.089 413.558 304.15 417.691 299.243C419.771 296.802 421.76 294.285 423.791 291.802L429.856 284.332C431.886 281.848 433.838 279.302 435.833 276.79C437.812 274.265 439.815 271.76 441.774 269.219C449.583 259.041 457.283 248.764 464.615 238.246L464.62 238.239C464.76 238.037 465.037 237.988 465.238 238.13C465.439 238.271 465.488 238.549 465.347 238.751Z" fill="white"/>
</g>
<g id="Group_4" opacity="0.79">
<path id="Vector_4" d="M226.646 330.676C226.646 330.676 273.798 113.36 416.141 0.707585C417.997 -0.761315 420.744 0.16767 421.31 2.47161C430.264 38.8612 476.883 270.963 226.646 330.676Z" fill="url(#paint2_linear_130_603)"/>
<path id="Vector_5" opacity="0.62" d="M401.027 63.4005C399.393 69.7044 397.491 75.9152 395.484 82.0979C393.473 88.2774 391.361 94.4252 389.117 100.524C384.615 112.717 379.712 124.761 374.428 136.637C373.118 139.61 371.736 142.552 370.393 145.511C369.041 148.466 367.582 151.371 366.181 154.303C364.791 157.241 363.288 160.123 361.829 163.026L359.622 167.373L357.338 171.678C351.253 183.163 344.843 194.482 337.936 205.495C331.006 216.489 323.805 227.323 316.036 237.743C315.074 239.052 314.131 240.375 313.154 241.672L310.173 245.528L307.193 249.384C306.194 250.664 305.224 251.968 304.177 253.21L297.987 260.738L296.433 262.614L294.824 264.442L291.604 268.098C274.52 287.676 255.397 305.448 234.722 321.093C234.551 321.222 234.309 321.188 234.18 321.016C234.055 320.849 234.084 320.614 234.244 320.482L234.253 320.475L241.76 314.326L245.518 311.262L249.156 308.053L256.423 301.63L263.449 294.942C264.612 293.819 265.81 292.734 266.956 291.593L270.358 288.138C272.615 285.823 274.919 283.555 277.137 281.202C281.496 276.426 285.957 271.745 290.107 266.781L293.271 263.106L294.853 261.269L296.379 259.384L302.5 251.859C303.538 250.619 304.498 249.317 305.488 248.038L308.44 244.19L311.393 240.341C312.36 239.046 313.295 237.725 314.247 236.419C321.943 226.018 329.072 215.205 335.931 204.234C342.826 193.281 349.27 182.043 355.368 170.622L357.66 166.341L359.875 162.019C361.34 159.132 362.848 156.266 364.244 153.344C367.109 147.536 369.874 141.679 372.596 135.802C377.999 124.027 383.02 112.073 387.654 99.9685C390.006 93.9293 392.226 87.8385 394.347 81.7131C395.411 78.6511 396.435 75.5757 397.425 72.4897C398.431 69.4103 399.392 66.3093 400.28 63.2018L400.282 63.1942C400.341 62.9883 400.555 62.869 400.76 62.9283C400.962 62.9875 401.08 63.1976 401.027 63.4005Z" fill="white"/>
</g>
</g>
<g id="Group_5" opacity="0.76">
<path id="Vector_6" d="M152.673 319.012C152.673 319.012 134.285 126.234 22.8217 14.055C21.3685 12.5923 18.8979 13.1103 18.1706 15.0432C6.68251 45.5737 -57.5213 241.395 152.673 319.012Z" fill="url(#paint3_linear_130_603)"/>
<path id="Vector_7" opacity="0.62" d="M30.1491 69.7264C32.052 80.8418 34.5132 91.8797 37.3274 102.807C40.0972 113.748 43.2146 124.6 46.6816 135.335C48.4352 140.697 50.2253 146.045 52.1038 151.362C53.0104 154.032 54.02 156.666 54.9893 159.313L56.4598 163.278L58.001 167.215C62.0993 177.719 66.516 188.099 71.3487 198.281C76.1443 208.476 81.1902 218.563 86.7675 228.352C87.4561 229.581 88.1273 230.819 88.83 232.039L90.9847 235.673L93.1393 239.306C93.8628 240.514 94.5584 241.739 95.3273 242.918L99.8397 250.059L100.963 251.848L102.139 253.601L104.493 257.108C107.564 261.831 110.935 266.343 114.207 270.927C115.879 273.192 117.635 275.393 119.346 277.629L121.928 280.971C122.8 282.077 123.723 283.14 124.611 284.232L129.986 290.75L135.597 297.064L138.407 300.219L141.336 303.262L147.181 309.368L147.189 309.376C147.336 309.53 147.332 309.776 147.178 309.924C147.028 310.069 146.791 310.068 146.643 309.926C130.346 294.279 115.623 276.934 102.851 258.238L100.44 254.743L99.2347 252.995L98.0826 251.212L93.5018 244.061C92.7235 242.878 92.0191 241.65 91.2865 240.439L89.1052 236.795L86.9236 233.151C86.2121 231.928 85.5321 230.686 84.8348 229.454C79.1866 219.637 74.0719 209.52 69.2088 199.293C64.3703 189.051 59.9967 178.595 55.9204 168.03L54.3896 164.068L52.9299 160.08C51.9679 157.417 50.9656 154.768 50.0668 152.083C49.1586 149.401 48.1962 146.738 47.3327 144.041C46.4783 141.342 45.5883 138.654 44.7638 135.946C38.1375 114.294 32.6319 92.2685 29.383 69.8342C29.3523 69.6218 29.4987 69.4246 29.7098 69.3937C29.9175 69.3634 30.1108 69.5054 30.1463 69.7119L30.1491 69.7264Z" fill="white"/>
</g>
<g id="Group_6">
<path id="Vector_8" d="M53.8301 25.5202C52.234 101.171 47.0575 362.116 49.5285 454.587C49.7904 464.384 56.4742 472.247 64.8118 472.567C106.049 474.153 257.221 478.171 324.671 474.847C338.72 474.154 349.892 460.784 350.183 444.266C351.585 364.861 354.677 141.527 347.327 39.2172C346.446 26.9593 338.258 17.1974 327.84 15.9727C282.931 10.6941 131.108 -2.20885 72.8355 2.23436C62.3262 3.03554 54.0911 13.15 53.8301 25.5202Z" fill="url(#paint4_linear_130_603)"/>
<path id="Vector_9" d="M72.2308 48.7301C70.0111 109.791 63.0098 312.926 65.2319 388.041C65.5568 399.021 72.9213 407.898 82.2552 408.54C120.686 411.182 251.803 417.009 308.171 411.705C318.321 410.75 326.286 401.105 326.834 389.159C329.69 326.864 337.892 137.716 335.762 63.4429C335.422 51.5944 327.611 41.9177 317.561 40.8578C275.985 36.4716 136.659 26.0357 88.7587 29.1064C79.767 29.683 72.615 38.1591 72.2308 48.7301Z" fill="url(#paint5_linear_130_603)"/>
<path id="Vector_10" opacity="0.61" d="M175.317 17.24C175.317 19.5613 176.857 21.4758 178.83 21.5971C188.57 22.1964 216.007 23.8922 228.27 24.7281C230.687 24.8931 232.585 22.3396 232.126 19.5456L232.048 19.0687C231.735 17.1624 230.389 15.7273 228.744 15.5503C220.455 14.6578 195.445 12.1833 178.874 12.8783C176.883 12.9618 175.317 14.8997 175.317 17.24Z" fill="url(#paint6_linear_130_603)"/>
<g id="Group_7">
<g id="Group_8">
<path id="Vector_11" d="M194.481 176.797C226.248 176.797 252 150.933 252 119.028C252 87.1229 226.248 61.2588 194.481 61.2588C162.715 61.2588 136.963 87.1229 136.963 119.028C136.963 150.933 162.715 176.797 194.481 176.797Z" fill="url(#paint7_linear_130_603)"/>
<path id="Vector_12" d="M212.091 97.1989C212.091 106.981 204.196 117.541 194.457 117.541C184.718 117.541 176.822 106.981 176.822 97.1989C176.822 87.4172 184.717 80.4775 194.457 80.4775C204.196 80.4775 212.091 87.4172 212.091 97.1989Z" fill="white"/>
<path id="Vector_13" d="M172.572 155.2H215.621C220.152 155.2 224.164 152.259 225.545 147.924L227.862 140.652C229.558 135.328 226.8 129.563 221.573 127.644C204.053 121.21 185.938 122.036 167.381 128.237C162.182 129.975 159.297 135.56 160.731 140.871L162.515 147.475C163.747 152.035 167.868 155.2 172.572 155.2Z" fill="white"/>
</g>
<g id="Group_9" opacity="0.71">
<path id="Vector_14" opacity="0.65" d="M304.772 269.055H94.911C94.2531 269.055 93.7197 268.519 93.7197 267.858V237.456C93.7197 236.795 94.2531 236.26 94.911 236.26H304.771C305.429 236.26 305.963 236.795 305.963 237.456V267.858C305.963 268.519 305.429 269.055 304.772 269.055Z" fill="white"/>
<path id="Vector_15" opacity="0.65" d="M303.626 322.562H93.7655C93.1076 322.562 92.5742 322.026 92.5742 321.365V290.963C92.5742 290.302 93.1076 289.767 93.7655 289.767H303.626C304.284 289.767 304.817 290.302 304.817 290.963V321.365C304.817 322.026 304.284 322.562 303.626 322.562Z" fill="white"/>
<path id="Vector_16" opacity="0.65" d="M262.633 386.381H128.463C127.651 386.381 126.993 385.72 126.993 384.904V346.047C126.993 345.231 127.651 344.57 128.463 344.57H262.633C263.445 344.57 264.103 345.231 264.103 346.047V384.904C264.103 385.72 263.445 386.381 262.633 386.381Z" fill="white"/>
</g>
<path id="Vector_17" opacity="0.75" d="M227.421 261.909H105.24C104.07 261.909 103.122 260.957 103.122 259.782V245.815C103.122 244.641 104.07 243.688 105.24 243.688H227.421C228.59 243.688 229.538 244.641 229.538 245.815V259.782C229.538 260.956 228.59 261.909 227.421 261.909Z" fill="white"/>
<g id="Group_10" opacity="0.75">
<path id="Vector_18" d="M110.372 312.169C114.172 310.588 115.977 306.212 114.403 302.396C112.829 298.579 108.472 296.766 104.672 298.347C100.872 299.928 99.0671 304.304 100.641 308.121C102.215 311.937 106.572 313.75 110.372 312.169Z" fill="white"/>
<path id="Vector_19" d="M130.807 312.552C134.607 310.971 136.411 306.595 134.837 302.778C133.263 298.962 128.906 297.149 125.106 298.73C121.306 300.311 119.502 304.687 121.076 308.503C122.65 312.32 127.006 314.133 130.807 312.552Z" fill="white"/>
<path id="Vector_20" d="M150.474 313.511C154.274 311.93 156.078 307.554 154.504 303.737C152.93 299.921 148.573 298.108 144.773 299.689C140.973 301.27 139.169 305.646 140.743 309.462C142.317 313.279 146.673 315.092 150.474 313.511Z" fill="white"/>
<path id="Vector_21" d="M173.309 312.268C176.217 309.347 176.217 304.611 173.309 301.689C170.401 298.768 165.685 298.768 162.777 301.689C159.868 304.611 159.868 309.347 162.777 312.268C165.685 315.189 170.401 315.189 173.309 312.268Z" fill="white"/>
<path id="Vector_22" d="M195.721 308.537C196.666 304.517 194.187 300.488 190.184 299.539C186.182 298.59 182.17 301.079 181.225 305.099C180.28 309.12 182.759 313.148 186.762 314.098C190.764 315.047 194.776 312.558 195.721 308.537Z" fill="white"/>
<path id="Vector_23" d="M216.275 308.373C216.934 304.295 214.177 300.453 210.116 299.791C206.056 299.129 202.231 301.898 201.572 305.976C200.913 310.054 203.67 313.896 207.73 314.558C211.79 315.219 215.616 312.45 216.275 308.373Z" fill="white"/>
</g>
</g>
</g>
<g id="Group_11">
<path id="Vector_24" d="M293.961 331.588L316.777 337.317L311.073 380.283C311.073 380.283 319.629 388.876 322.481 400.334C325.333 411.792 327.962 459.901 327.962 459.901L333.376 463.188L334.035 465.932L318.284 487.202L320.896 470.273C321.311 467.586 320.593 462.135 320.819 462.021C312.263 439.106 293.961 374.554 293.961 374.554V331.588Z" fill="url(#paint8_linear_130_603)"/>
<path id="Vector_25" d="M287.293 466.227C287.54 466.223 287.783 466.242 288.031 466.227C286.929 452.413 281.89 391.614 276.848 368.826C271.144 343.046 285.404 291.486 285.404 291.486L311.072 317.266L296.812 365.961C306.584 380.683 295.218 466.9 295.462 466.863L295.447 467.054L299.168 472.193L298.715 474.979L275.985 488.45L284.928 473.863C286.348 471.548 287.133 468.923 287.293 466.227Z" fill="url(#paint9_linear_130_603)"/>
<path id="Vector_26" d="M316.164 177.151C316.164 177.151 366.14 233.722 316.164 262.728L311.072 259.025C311.072 259.025 335.884 235.162 311.072 205.951L316.164 177.151Z" fill="url(#paint10_linear_130_603)"/>
<path id="Vector_27" d="M274.488 490.563H281.742C283.1 490.563 284.38 489.937 285.209 488.857C287.47 485.905 292.155 480.148 294.395 479.998C297.411 479.795 297.025 490.563 297.025 490.563H298.716L300.857 477.182C301.396 473.816 299.729 470.481 296.719 468.903C296.719 468.903 296.029 474.024 292.291 476.289C288.554 478.554 277.08 486.665 277.08 486.665C277.08 486.665 275.675 486.464 274.132 486.744C271.843 487.159 272.163 490.563 274.488 490.563Z" fill="url(#paint11_linear_130_603)"/>
<path id="Vector_28" d="M317.72 489.734L324.406 486.909C325.657 486.38 326.596 485.304 326.942 483.985C327.887 480.384 329.983 473.252 331.99 472.241C334.691 470.88 338.493 480.956 338.493 480.956L340.052 480.298L336.859 467.13C336.056 463.817 333.232 461.392 329.848 461.11C329.848 461.11 331.19 466.099 328.619 469.642C326.048 473.186 318.603 485.131 318.603 485.131C318.603 485.131 317.231 485.493 315.916 486.352C313.967 487.626 315.576 490.639 317.72 489.734Z" fill="url(#paint12_linear_130_603)"/>
<path id="Vector_29" d="M278.867 247.896C278.867 247.896 279.706 253.059 278.477 267.253C277.248 281.448 271.374 314.773 272.57 346.658C272.57 346.658 289.27 350.567 318.283 348.716C318.283 348.716 330.528 298.933 327.544 280.008C324.562 261.082 308.381 247.505 308.381 247.505L278.867 247.896Z" fill="url(#paint13_linear_130_603)"/>
<path id="Vector_30" d="M291.207 153.046L289.166 177.151H308.558L303.736 140.356L291.207 153.046Z" fill="url(#paint14_linear_130_603)"/>
<path id="Vector_31" d="M314.302 173.818C307.61 173.447 292.647 172.761 282.046 173.341C276.465 173.647 271.79 177.668 270.648 183.164L268.063 195.608C267.1 200.243 267.244 205.041 268.483 209.61L278.868 247.896C278.868 247.896 288.104 253.47 308.381 247.505C308.381 247.505 326.189 204.855 318.9 177.572C318.333 175.453 316.483 173.939 314.302 173.818Z" fill="url(#paint15_linear_130_603)"/>
<path id="Vector_32" d="M271.155 180.932C268.299 188.489 265.719 196.413 262.947 203.835C261.538 207.549 260.109 211.19 258.579 214.534C257.806 216.2 256.956 217.73 256.176 219.118C255.396 220.491 254.516 221.634 254.059 222.16C253.969 222.238 254.27 222.297 254.37 222.302C254.431 222.31 252.439 222.63 251.828 222.733L249.441 222.719C246.02 222.542 242.144 221.936 238.257 221.177C230.417 219.709 222.265 217.648 213.895 216.088L213.831 216.076C212.23 215.778 210.691 216.84 210.393 218.449C210.197 219.509 210.595 220.546 211.345 221.212C214.719 224.196 218.297 226.647 222.007 229.033C223.875 230.18 225.776 231.305 227.707 232.384C229.677 233.392 231.652 234.409 233.704 235.349C237.835 237.156 242.102 238.822 247.017 239.891C248.309 240.108 249.584 240.336 250.914 240.515C252.404 240.567 253.758 240.7 255.386 240.605C256.251 240.519 257.12 240.412 257.987 240.286C258.448 240.204 258.788 240.195 259.348 240.04C259.942 239.861 260.535 239.661 261.119 239.441C262.339 239 263.128 238.468 264.12 237.914C264.943 237.369 265.694 236.799 266.422 236.214C269.11 233.915 270.779 231.633 272.25 229.442C273.716 227.253 274.879 225.061 275.922 222.911C278.016 218.618 279.65 214.365 280.977 210.082C283.665 201.499 285.486 193.063 286.254 184.103C286.622 179.811 283.457 176.032 279.183 175.662C275.647 175.356 272.459 177.481 271.257 180.657L271.155 180.932Z" fill="url(#paint16_linear_130_603)"/>
<path id="Vector_33" d="M216.53 219.94L213.07 211.69L194.857 207.132C194.857 207.132 193.4 210.303 201.049 211.69C201.049 211.69 198.317 214.723 199.775 218.29C201.232 221.857 216.712 225.43 216.53 219.94Z" fill="url(#paint17_linear_130_603)"/>
<path id="Vector_34" d="M282.997 125.208C282.304 125.618 276.849 144.944 281.421 153.046C285.992 161.149 299.953 152.073 303.736 140.357C307.52 128.64 301.441 114.283 282.997 125.208Z" fill="url(#paint18_linear_130_603)"/>
<path id="Vector_35" d="M319.18 140.357C322.312 155.766 332.687 151.549 340.036 158.404C351.946 169.515 368.984 158.061 385.548 168.591C397.506 176.192 403.267 195.639 397.529 211.34C389.581 233.086 362.42 242.03 348.344 235.406C334.892 229.076 336.807 210.117 318.707 202.79C311.023 199.68 307.23 201.701 302.628 197.09C294.572 189.02 296.745 173.358 297.583 167.324C299.4 154.232 303.771 151.862 301.682 146.108C297.619 134.917 278.669 137.226 277.089 129.325C275.651 122.13 289.387 108.493 302.313 110.642C322.312 113.967 317.785 133.492 319.18 140.357Z" fill="url(#paint19_linear_130_603)"/>
<path id="Vector_36" opacity="0.6" d="M391.557 207.657C391.794 207.657 392.008 207.496 392.066 207.254C394.627 196.578 393.465 187.823 388.612 181.23C380.558 170.289 364.905 169.206 364.748 169.197C364.501 169.156 364.212 169.399 364.193 169.69C364.176 169.98 364.395 170.229 364.684 170.247C364.837 170.256 380.016 171.314 387.774 181.861C392.431 188.191 393.533 196.652 391.048 207.008C390.98 207.29 391.153 207.575 391.434 207.643C391.475 207.652 391.517 207.657 391.557 207.657Z" fill="white"/>
<path id="Vector_37" opacity="0.72" d="M340.289 217.43C340.311 217.43 340.333 217.427 340.355 217.422C340.494 217.385 340.578 217.241 340.542 217.1C338.048 207.489 333.672 200.814 327.536 197.26C323.072 194.674 318.892 194.434 315.205 194.221C311.649 194.016 308.578 193.838 306.107 191.631C300.998 187.068 301.293 176.097 306.986 159.022C307.032 158.884 306.957 158.736 306.82 158.689C306.682 158.643 306.535 158.718 306.489 158.856C300.724 176.148 300.478 187.307 305.759 192.023C308.366 194.353 311.521 194.535 315.175 194.746C318.804 194.956 322.918 195.193 327.275 197.716C333.284 201.197 337.578 207.764 340.035 217.234C340.066 217.352 340.173 217.43 340.289 217.43Z" fill="white"/>
<path id="Vector_38" opacity="0.72" d="M311.772 136.533C311.8 136.533 311.827 136.529 311.856 136.52C311.993 136.474 312.067 136.324 312.021 136.186C310.038 130.262 304.326 131.142 298.273 132.077C294.442 132.668 290.482 133.277 287.123 132.279C284.616 131.533 283.128 130.376 282.697 128.841C281.961 126.227 284.536 123.312 284.562 123.282C284.659 123.174 284.65 123.008 284.543 122.911C284.436 122.814 284.27 122.823 284.174 122.931C284.059 123.058 281.381 126.087 282.192 128.982C282.674 130.703 284.283 131.981 286.973 132.782C290.447 133.816 294.465 133.196 298.353 132.597C304.428 131.66 309.681 130.848 311.524 136.355C311.561 136.465 311.663 136.533 311.772 136.533Z" fill="white"/>
</g>
<g id="Group_12">
<g id="Group_13">
<path id="Vector_39" d="M369.489 76.6895C369.489 49.5706 392.361 27.5892 419.809 27.5928C446.446 27.596 467.467 48.4199 467.467 74.1043C467.467 99.7886 446.445 121.722 419.809 123.131C392.361 124.583 369.489 103.808 369.489 76.6895Z" fill="url(#paint20_linear_130_603)"/>
</g>
<g id="Group_14">
<path id="Vector_40" d="M374.08 76.5679C374.08 51.9904 394.809 32.0693 419.684 32.0723C443.824 32.0755 462.876 50.9476 462.876 74.2247C462.876 97.502 443.824 117.38 419.684 118.657C394.809 119.973 374.08 101.145 374.08 76.5679Z" fill="url(#paint21_linear_130_603)"/>
</g>
<g id="Group_15">
<path id="Vector_41" d="M404.91 73.7817H400.823V57.4239C400.823 50.999 405.612 45.5695 411.962 44.7944L420.319 43.7745C423.915 43.3354 427.534 44.4675 430.246 46.8807C432.958 49.2938 434.514 52.7648 434.514 56.404V70.6846H430.427V56.404C430.427 53.9389 429.373 51.5878 427.536 49.9533C425.699 48.3189 423.247 47.5519 420.811 47.8493L412.455 48.8693C408.154 49.3943 404.91 53.0719 404.91 57.4239V73.7817H404.91Z" fill="white"/>
<path id="Vector_42" d="M399.615 70.1099L435.441 68.1163C436.896 68.0353 438.12 69.1986 438.12 70.6622V99.1677C438.12 100.576 436.984 101.718 435.582 101.718H400.616C399.247 101.718 398.124 100.626 398.079 99.2509L397.218 72.7389C397.173 71.3538 398.238 70.1864 399.615 70.1099Z" fill="white"/>
<path id="Vector_43" d="M423.509 93.5504L421.34 87.2891C421.08 86.5363 421.257 85.6947 421.815 85.1273C422.926 83.9964 423.588 82.4196 423.51 80.6876C423.371 77.6334 420.887 75.157 417.845 75.0397C414.479 74.9097 411.709 77.6121 411.709 80.9643C411.709 82.8239 412.562 84.483 413.896 85.5697C414.588 86.1334 414.872 87.0597 414.579 87.9049L412.624 93.5504C412.149 94.9234 413.164 96.3572 414.611 96.3572H421.522C422.969 96.3572 423.984 94.9234 423.509 93.5504Z" fill="url(#paint22_linear_130_603)"/>
</g>
</g>
<g id="Group_16">
<g id="Group_17">
<g id="Group_18" opacity="0.3">
<path id="Vector_44" d="M121.703 437.817C122.136 438.735 121.85 439.867 121.013 440.426C119.182 441.649 117.274 442.806 115.341 443.865C114.4 444.38 113.24 443.993 112.749 443C112.744 442.988 112.738 442.976 112.733 442.964C112.268 441.978 112.634 440.777 113.564 440.268C115.4 439.262 117.213 438.163 118.952 437.001C119.847 436.403 121.034 436.685 121.603 437.631C121.641 437.692 121.673 437.754 121.703 437.817ZM106.67 445.526C106.704 445.597 106.734 445.671 106.76 445.748C107.118 446.802 106.598 447.961 105.6 448.336C103.549 449.106 101.446 449.791 99.3507 450.371C98.3253 450.655 97.2781 450.012 97.0017 448.926C96.7301 447.844 97.3414 446.737 98.3659 446.453C100.358 445.901 102.355 445.25 104.304 444.518C105.23 444.17 106.243 444.619 106.67 445.526ZM90.3948 449.548C90.4901 449.75 90.5547 449.973 90.5819 450.209C90.7079 451.32 89.9573 452.328 88.9042 452.458C86.7458 452.727 84.5489 452.9 82.375 452.971C81.3148 453.005 80.4277 452.127 80.391 451.01C80.3553 449.892 81.186 448.956 82.2458 448.921C84.3103 448.853 86.3958 448.69 88.4459 448.435C89.2741 448.332 90.0431 448.802 90.3948 449.548ZM73.663 449.627C73.8204 449.961 73.8924 450.345 73.8524 450.743C73.7405 451.855 72.7944 452.659 71.7399 452.538C69.5763 452.289 67.3971 451.94 65.2622 451.498C64.222 451.282 63.5414 450.218 63.7421 449.12C63.9438 448.022 64.9516 447.307 65.993 447.522C68.0203 447.942 70.0903 448.274 72.1463 448.51C72.8233 448.588 73.3805 449.027 73.663 449.627ZM57.326 445.769C57.5468 446.237 57.5967 446.794 57.4236 447.327C57.0803 448.385 55.9883 448.947 54.9851 448.582C52.9319 447.836 50.8794 446.986 48.8862 446.056C47.9148 445.604 47.4732 444.408 47.9005 443.385C48.3274 442.362 49.4603 441.899 50.4316 442.352C52.3262 443.236 54.2769 444.043 56.2283 444.752C56.7263 444.933 57.1088 445.308 57.326 445.769ZM42.1974 438.197C42.4833 438.803 42.4754 439.547 42.1137 440.164C41.5568 441.115 40.374 441.408 39.4711 440.819C37.6212 439.61 35.7965 438.303 34.0495 436.933C33.1969 436.265 33.0183 434.996 33.6499 434.098C34.2808 433.201 35.4838 433.015 36.336 433.683C37.9964 434.985 39.7293 436.227 41.4872 437.375C41.8038 437.582 42.0431 437.869 42.1974 438.197ZM6.7473 373.8C6.86572 374.051 6.93632 374.332 6.94638 374.631C7.01909 376.806 7.18287 379.008 7.43383 381.174C7.56231 382.284 6.81313 383.293 5.76075 383.426C4.70802 383.559 3.75024 382.766 3.62158 381.655C3.35739 379.374 3.18443 377.055 3.10766 374.764C3.07025 373.646 3.89937 372.71 4.95934 372.673C5.7364 372.646 6.42204 373.11 6.7473 373.8ZM29.0364 427.287C29.3913 428.04 29.2759 428.978 28.6861 429.609C27.9422 430.406 26.7264 430.413 25.9702 429.627C24.4199 428.016 22.9172 426.313 21.5035 424.568C20.8177 423.713 20.9072 422.438 21.7134 421.712C22.519 420.986 23.7315 421.089 24.4215 421.94C25.7637 423.598 27.1907 425.215 28.6626 426.745C28.819 426.907 28.9439 427.091 29.0364 427.287ZM9.21932 391.26C9.2758 391.38 9.32239 391.507 9.35645 391.641C9.88926 393.747 10.5158 395.856 11.2171 397.911C11.5765 398.964 11.0592 400.124 10.0617 400.501C9.06401 400.877 7.95923 400.332 7.60361 399.275C6.8659 397.113 6.20673 394.894 5.64551 392.679C5.37178 391.597 5.98048 390.488 7.00497 390.202C7.90204 389.951 8.82082 390.414 9.21932 391.26ZM18.5084 413.556C18.9403 414.472 18.6567 415.602 17.8217 416.162C16.9276 416.762 15.7404 416.482 15.169 415.538C14.0006 413.604 12.8955 411.591 11.8855 409.555C11.8788 409.542 11.8726 409.529 11.8666 409.516C11.4023 408.531 11.7674 407.333 12.6943 406.822C13.6341 406.305 14.7946 406.69 15.2869 407.683C16.2469 409.617 17.2968 411.529 18.4071 413.366C18.444 413.428 18.4782 413.492 18.5084 413.556Z" fill="url(#paint23_linear_130_603)"/>
<path id="Vector_45" d="M7.49264 359.598C7.66118 359.956 7.73213 360.369 7.67283 360.794C7.52864 361.827 7.40316 362.88 7.29798 363.925C7.18679 365.037 6.24119 365.842 5.18687 365.722C4.13202 365.602 3.36572 364.603 3.47885 363.49C3.58862 362.391 3.72099 361.283 3.87241 360.196C4.02648 359.09 5.00244 358.326 6.05111 358.491C6.69828 358.593 7.22191 359.024 7.49264 359.598Z" fill="url(#paint24_linear_130_603)"/>
</g>
<g id="Group_19" opacity="0.3">
<path id="Vector_46" d="M37.9449 306.925C38.3579 307.801 38.1196 308.887 37.3417 309.472C36.5362 310.077 35.7292 310.711 34.9438 311.354C34.1069 312.04 32.9003 311.879 32.2485 310.995C31.594 310.107 31.7466 308.837 32.583 308.152C33.4101 307.475 34.2599 306.807 35.1079 306.17C35.9708 305.522 37.1702 305.735 37.7873 306.646C37.8475 306.736 37.8999 306.83 37.9449 306.925Z" fill="url(#paint25_linear_130_603)"/>
<path id="Vector_47" d="M148.42 336.123C148.813 336.958 149.195 337.804 149.565 338.66C150.005 339.679 149.58 340.879 148.615 341.342C147.65 341.804 146.505 341.349 146.07 340.334C145.217 338.359 144.289 336.425 143.302 334.565C142.785 333.586 143.113 332.354 144.038 331.809C144.964 331.264 146.134 331.615 146.653 332.592C147.263 333.743 147.858 334.931 148.42 336.123ZM153.134 348.679C153.182 348.781 153.223 348.888 153.255 349C153.873 351.166 154.411 353.384 154.853 355.591C155.073 356.685 154.41 357.759 153.373 357.988C152.335 358.217 151.312 357.514 151.096 356.42C150.676 354.324 150.164 352.217 149.578 350.159C149.272 349.087 149.847 347.959 150.862 347.639C151.771 347.352 152.725 347.811 153.134 348.679ZM141.112 323.662C141.515 324.519 141.299 325.581 140.551 326.177C139.705 326.85 138.501 326.671 137.86 325.777C136.636 324.068 135.325 322.39 133.964 320.791C133.256 319.956 133.319 318.676 134.108 317.93C134.897 317.184 136.111 317.255 136.82 318.088C138.253 319.772 139.633 321.54 140.923 323.34C140.997 323.443 141.059 323.551 141.112 323.662ZM156.118 365.771C156.227 366.001 156.295 366.257 156.313 366.529C156.465 368.782 156.528 371.069 156.499 373.326C156.485 374.444 155.614 375.336 154.553 375.319C153.492 375.301 152.644 374.381 152.659 373.261C152.686 371.119 152.627 368.947 152.482 366.808C152.407 365.692 153.204 364.724 154.261 364.648C155.061 364.59 155.782 365.057 156.118 365.771ZM129.79 311.04C130.121 311.742 130.048 312.614 129.538 313.25C128.854 314.103 127.642 314.208 126.831 313.484C125.282 312.1 123.654 310.767 121.994 309.521C121.129 308.871 120.924 307.606 121.539 306.695C122.152 305.784 123.35 305.572 124.216 306.222C125.964 307.533 127.677 308.937 129.309 310.394C129.515 310.579 129.677 310.8 129.79 311.04ZM116.122 301.337C116.386 301.898 116.401 302.58 116.106 303.177C115.615 304.168 114.456 304.55 113.515 304.03C111.711 303.034 109.847 302.106 107.974 301.272C106.996 300.838 106.535 299.65 106.946 298.618C107.357 297.587 108.482 297.105 109.46 297.54C111.431 298.417 113.393 299.394 115.291 300.443C115.665 300.649 115.947 300.967 116.122 301.337ZM100.781 295.003C100.982 295.43 101.042 295.932 100.916 296.428C100.643 297.508 99.5898 298.148 98.5651 297.856C96.5982 297.296 94.5882 296.818 92.5897 296.435C91.5461 296.234 90.8513 295.181 91.0391 294.078C91.2269 292.978 92.2246 292.248 93.2688 292.448C95.3716 292.852 97.4877 293.355 99.557 293.944C100.111 294.102 100.544 294.5 100.781 295.003ZM84.5044 292.346C84.6438 292.641 84.7166 292.977 84.703 293.33C84.6599 294.448 83.7658 295.314 82.7062 295.266C80.6729 295.173 78.6139 295.171 76.5852 295.26C75.5256 295.306 74.6285 294.436 74.5821 293.32C74.5355 292.202 75.3571 291.258 76.4167 291.212C78.5537 291.119 80.7224 291.121 82.8624 291.218C83.5879 291.251 84.2025 291.705 84.5044 292.346ZM68.0744 293.522C68.1528 293.688 68.2103 293.869 68.2437 294.06C68.4351 295.161 67.7446 296.215 66.7015 296.414C64.7053 296.796 62.6983 297.272 60.7355 297.831C59.7119 298.122 58.6563 297.479 58.3782 296.402C58.0993 295.322 58.7034 294.21 59.727 293.919C61.7933 293.331 63.9062 292.829 66.0078 292.428C66.8694 292.263 67.7027 292.733 68.0744 293.522ZM52.3099 298.474C52.3274 298.511 52.3438 298.549 52.3595 298.588C52.7734 299.619 52.3173 300.807 51.3409 301.241C49.9623 301.854 48.5859 302.518 47.2482 303.218C46.7639 303.47 46.2833 303.729 45.807 303.992C44.8676 304.51 43.7065 304.125 43.2139 303.133C42.6961 302.139 43.0823 300.918 44.0208 300.4C44.5224 300.124 45.0271 299.852 45.537 299.586C46.9439 298.851 48.3927 298.151 49.8425 297.507C50.7819 297.089 51.8613 297.521 52.3099 298.474Z" fill="url(#paint26_linear_130_603)"/>
<path id="Vector_48" d="M155.454 383.174C155.624 383.535 155.694 383.952 155.633 384.38C155.476 385.464 155.296 386.565 155.095 387.652C154.893 388.75 153.884 389.465 152.844 389.248C151.802 389.032 151.122 387.968 151.325 386.869C151.515 385.837 151.687 384.791 151.835 383.762C151.994 382.657 152.973 381.898 154.022 382.069C154.665 382.174 155.184 382.603 155.454 383.174Z" fill="url(#paint27_linear_130_603)"/>
</g>
<g id="Group_20">
<path id="Vector_49" d="M134.359 391.144C134.517 390.777 134.436 390.343 134.158 390.065L126.213 382.135C127.199 376.857 127.394 371.374 126.709 365.881L135.109 358.546C135.403 358.288 135.51 357.862 135.375 357.484L130.748 344.54C130.613 344.161 130.265 343.915 129.883 343.925L118.97 344.23C116.045 339.623 112.464 335.633 108.417 332.347L109.425 320.875C109.461 320.473 109.25 320.09 108.901 319.923L96.9609 314.2C96.6119 314.032 96.2012 314.117 95.9386 314.41L88.4397 322.771C83.4343 321.718 78.2352 321.5 73.03 322.209L66.0559 313.331C65.8112 313.02 65.4067 312.906 65.0485 313.047L52.7888 317.897C52.4305 318.039 52.1976 318.405 52.2087 318.809L52.5232 330.321C48.1633 333.396 44.3895 337.164 41.2836 341.425L30.4056 340.334C30.0246 340.296 29.6628 340.517 29.505 340.884L24.1079 353.466C23.95 353.834 24.0312 354.267 24.3097 354.545L32.2538 362.476C31.2677 367.753 31.0733 373.237 31.758 378.73L23.3584 386.065C23.0639 386.323 22.9569 386.749 23.0919 387.127L27.719 400.071C27.8542 400.45 28.2017 400.696 28.5846 400.686L39.4974 400.381C42.4226 404.988 46.0037 408.978 50.0508 412.264L49.0422 423.736C49.0067 424.138 49.2173 424.52 49.5662 424.688L61.5068 430.411C61.8557 430.578 62.2662 430.494 62.5292 430.201L70.028 421.84C75.0334 422.892 80.2325 423.111 85.4377 422.402L92.4117 431.28C92.6561 431.591 93.0608 431.705 93.4191 431.563L105.679 426.713C106.037 426.572 106.27 426.206 106.259 425.802L105.944 414.29C110.304 411.215 114.078 407.447 117.184 403.186L128.062 404.277C128.443 404.315 128.805 404.094 128.962 403.726L134.359 391.144Z" fill="url(#paint28_linear_130_603)"/>
<path id="Vector_50" opacity="0.56" d="M91.0304 366.152C93.8914 372.223 92.1827 379.759 86.7598 383.728C80.7987 388.09 72.574 386.515 68.4241 380.217C66.4129 377.166 65.6482 373.474 66.2686 369.823C66.8885 366.172 68.8203 362.997 71.7082 360.884C77.6693 356.521 85.894 358.097 90.0439 364.394C90.4178 364.962 90.7468 365.55 91.0304 366.152ZM70.1821 377.011C70.4031 377.479 70.6574 377.934 70.9459 378.372C74.1272 383.201 80.4343 384.408 85.004 381.064C89.574 377.719 90.7062 371.069 87.5222 366.24C84.3409 361.411 78.0339 360.204 73.4642 363.548C71.25 365.169 69.7689 367.603 69.2933 370.403C68.907 372.678 69.2226 374.975 70.1821 377.011Z" fill="white"/>
<path id="Vector_51" opacity="0.56" d="M107.941 356.997C108.432 358.04 108.876 359.115 109.271 360.219C109.396 360.566 109.514 360.916 109.628 361.267C110.188 363.001 110.617 364.779 110.908 366.573C110.912 366.597 110.916 366.622 110.92 366.646C110.931 366.716 110.942 366.785 110.952 366.855C110.973 366.99 110.992 367.126 111.012 367.261C111.062 367.618 110.885 367.954 110.595 368.106C110.525 368.142 110.447 368.168 110.365 368.181C109.946 368.246 109.556 367.939 109.493 367.497C109.17 365.219 108.611 362.962 107.834 360.788C103.975 349.988 95.2307 342.6 85.2505 340.369C79.6995 339.127 73.7659 339.481 68.0773 341.731C67.0796 342.126 66.1084 342.571 65.1671 343.063C58.8304 346.375 53.8135 351.842 50.8589 358.731C47.4646 366.643 47.1978 375.484 50.1073 383.624C56.118 400.434 73.9493 408.976 89.8638 402.68C90.845 402.292 91.8041 401.853 92.7366 401.365C96.7785 399.252 100.335 396.229 103.141 392.498C103.214 392.402 103.303 392.328 103.401 392.277C103.659 392.142 103.979 392.167 104.22 392.369C104.552 392.649 104.61 393.157 104.345 393.508C101.399 397.424 97.6653 400.599 93.4219 402.817C92.4429 403.329 91.4366 403.79 90.4068 404.198C73.698 410.808 54.974 401.828 48.6698 384.193C45.6151 375.647 45.8957 366.366 49.4589 358.06C52.5604 350.828 57.8276 345.089 64.4797 341.611C65.4682 341.095 66.4877 340.628 67.5344 340.214C75.6287 337.012 84.4274 337.329 92.3102 341.108C99.1746 344.398 104.629 349.97 107.941 356.997Z" fill="white"/>
</g>
</g>
<g id="Group_21">
<g id="Group_22" opacity="0.3">
<path id="Vector_52" d="M196.211 476.106C196.44 476.591 196.351 477.195 195.955 477.58C195.217 478.3 194.447 479.007 193.668 479.679C193.162 480.117 192.415 480.037 191.999 479.502C191.581 478.968 191.657 478.179 192.163 477.742C192.905 477.101 193.639 476.427 194.344 475.74C194.823 475.272 195.574 475.304 196.02 475.812C196.099 475.902 196.162 476.001 196.211 476.106Z" fill="url(#paint29_linear_130_603)"/>
<path id="Vector_53" d="M188.978 481.954C189.246 482.523 189.068 483.223 188.549 483.567C187.083 484.54 185.553 485.445 184.002 486.256C183.675 486.426 183.346 486.594 183.014 486.758C182.42 487.051 181.72 486.737 181.434 486.157C181.154 485.531 181.408 484.786 182 484.492C182.318 484.335 182.633 484.176 182.945 484.012C184.425 483.239 185.884 482.376 187.282 481.449C187.836 481.081 188.568 481.257 188.918 481.842C188.94 481.879 188.96 481.916 188.978 481.954ZM177.839 487.468C177.864 487.521 177.886 487.577 177.904 487.634C178.109 488.291 177.771 488.998 177.149 489.213C175.154 489.904 173.099 490.469 171.044 490.894C170.402 491.027 169.778 490.581 169.65 489.907C169.523 489.228 169.94 488.572 170.582 488.439C172.543 488.033 174.502 487.493 176.406 486.835C176.973 486.639 177.58 486.919 177.839 487.468ZM165.758 489.964C165.825 490.106 165.868 490.264 165.88 490.432C165.927 491.121 165.434 491.719 164.781 491.766C162.687 491.918 160.562 491.935 158.463 491.812C157.808 491.774 157.307 491.186 157.342 490.494C157.376 489.804 157.935 489.275 158.588 489.313C160.589 489.43 162.615 489.415 164.612 489.27C165.106 489.234 165.551 489.523 165.758 489.964ZM153.458 489.249C153.568 489.481 153.609 489.75 153.564 490.025C153.449 490.705 152.833 491.157 152.188 491.034C150.118 490.639 148.053 490.106 146.05 489.448C145.425 489.242 145.075 488.539 145.268 487.881C145.461 487.222 146.125 486.853 146.752 487.059C148.66 487.687 150.63 488.195 152.604 488.571C152.989 488.645 153.297 488.906 153.458 489.249ZM141.69 485.387C141.843 485.712 141.862 486.103 141.71 486.459C141.442 487.088 140.74 487.367 140.142 487.083C138.227 486.17 136.347 485.125 134.554 483.975C133.992 483.616 133.814 482.846 134.153 482.255C134.493 481.665 135.222 481.478 135.782 481.837C137.493 482.934 139.287 483.932 141.115 484.802C141.375 484.927 141.572 485.137 141.69 485.387ZM131.161 478.633C131.359 479.053 131.324 479.574 131.031 479.966C130.626 480.507 129.88 480.598 129.365 480.169C127.717 478.794 126.133 477.297 124.661 475.72C124.202 475.224 124.207 474.434 124.673 473.95C125.138 473.465 125.89 473.473 126.35 473.965C127.754 475.469 129.262 476.896 130.834 478.208C130.977 478.326 131.086 478.473 131.161 478.633ZM122.514 469.375C122.762 469.9 122.631 470.553 122.174 470.922C121.655 471.342 120.91 471.237 120.511 470.688C119.236 468.934 118.049 467.073 116.981 465.157C116.658 464.553 116.838 463.792 117.403 463.444C117.967 463.095 118.694 463.296 119.027 463.892C120.044 465.721 121.176 467.497 122.392 469.169C122.44 469.234 122.48 469.303 122.514 469.375ZM114.173 452.033C114.204 452.098 114.23 452.167 114.25 452.239C114.738 453.99 115.325 455.744 115.996 457.453C116.096 457.712 116.197 457.966 116.302 458.217C116.562 458.852 116.287 459.588 115.686 459.862C115.085 460.137 114.367 459.849 114.125 459.209C114.016 458.941 113.907 458.672 113.802 458.4C113.102 456.615 112.486 454.776 111.974 452.939C111.79 452.276 112.149 451.582 112.777 451.388C113.337 451.216 113.922 451.499 114.173 452.033Z" fill="url(#paint30_linear_130_603)"/>
</g>
<g id="Group_23" opacity="0.3">
<path id="Vector_54" d="M206.68 413.22C206.968 413.832 206.737 414.576 206.159 414.888C205.577 415.203 204.862 414.959 204.563 414.344C203.661 412.491 202.645 410.681 201.542 408.963C201.182 408.39 201.315 407.612 201.858 407.225C202.401 406.839 203.138 406.99 203.506 407.562C204.661 409.365 205.727 411.262 206.673 413.204C206.673 413.204 206.677 413.215 206.68 413.22ZM209.124 419.085C209.143 419.125 209.16 419.166 209.175 419.209C209.893 421.253 210.5 423.364 210.981 425.483C211.132 426.156 210.74 426.829 210.103 426.988C209.465 427.148 208.826 426.728 208.673 426.06C208.215 424.038 207.635 422.024 206.951 420.073C206.723 419.425 207.037 418.705 207.651 418.467C208.225 418.244 208.858 418.519 209.124 419.085ZM199.88 402.631C200.114 403.128 200.013 403.747 199.599 404.129C199.106 404.582 198.357 404.528 197.925 404.007C196.625 402.437 195.225 400.938 193.76 399.551C193.274 399.085 193.232 398.297 193.669 397.784C194.106 397.271 194.857 397.229 195.345 397.691C196.879 399.146 198.348 400.718 199.71 402.363C199.779 402.447 199.835 402.536 199.88 402.631ZM211.935 431.526C211.995 431.653 212.036 431.794 212.052 431.944C212.283 434.111 212.39 436.314 212.368 438.492C212.362 439.183 211.825 439.736 211.17 439.728C210.517 439.718 209.991 439.151 209.996 438.461C210.017 436.384 209.915 434.284 209.694 432.218C209.621 431.531 210.09 430.912 210.741 430.837C211.249 430.778 211.719 431.068 211.935 431.526ZM190.86 394.084C191.047 394.481 191.028 394.971 190.771 395.358C190.396 395.925 189.657 396.061 189.12 395.665C187.506 394.472 185.806 393.372 184.066 392.394C183.486 392.069 183.267 391.31 183.574 390.701C183.881 390.091 184.6 389.861 185.178 390.186C187.002 391.212 188.785 392.365 190.477 393.615C190.646 393.74 190.774 393.903 190.86 394.084ZM180.164 388.064C180.308 388.368 180.334 388.731 180.21 389.072C179.974 389.716 179.288 390.036 178.677 389.787C176.835 389.035 174.934 388.394 173.029 387.883C172.393 387.712 172.008 387.03 172.168 386.361C172.328 385.691 172.973 385.287 173.607 385.458C175.606 385.994 177.598 386.665 179.529 387.453C179.816 387.571 180.037 387.794 180.164 388.064ZM168.415 384.917C168.515 385.131 168.56 385.376 168.529 385.631C168.447 386.316 167.853 386.801 167.203 386.712C165.246 386.446 163.257 386.305 161.291 386.293C160.637 386.288 160.107 385.725 160.109 385.034C160.112 384.343 160.644 383.786 161.3 383.79C163.361 383.804 165.448 383.951 167.501 384.229C167.91 384.285 168.244 384.555 168.415 384.917Z" fill="url(#paint31_linear_130_603)"/>
<path id="Vector_55" d="M211.808 444.365C211.91 444.581 211.953 444.83 211.921 445.088C211.786 446.149 211.621 447.21 211.431 448.243C211.306 448.921 210.683 449.363 210.04 449.229C209.399 449.094 208.978 448.438 209.102 447.76C209.284 446.775 209.441 445.762 209.57 444.749C209.657 444.065 210.254 443.585 210.903 443.679C211.308 443.737 211.638 444.005 211.808 444.365Z" fill="url(#paint32_linear_130_603)"/>
</g>
<g id="Group_24">
<path id="Vector_56" d="M197.65 450.601C197.756 450.355 197.701 450.065 197.515 449.879L192.199 444.572C192.859 441.041 192.989 437.371 192.531 433.696L198.152 428.787C198.349 428.615 198.42 428.33 198.33 428.077L195.234 419.415C195.143 419.162 194.911 418.997 194.654 419.004L187.352 419.208C185.395 416.125 182.998 413.455 180.29 411.256L180.965 403.58C180.989 403.311 180.848 403.055 180.614 402.943L172.624 399.113C172.391 399.001 172.116 399.058 171.94 399.254L166.922 404.849C163.573 404.144 160.094 403.998 156.611 404.473L151.944 398.532C151.781 398.323 151.51 398.247 151.27 398.342L143.067 401.587C142.827 401.682 142.671 401.927 142.678 402.197L142.889 409.901C139.971 411.958 137.446 414.48 135.368 417.331L128.089 416.601C127.834 416.575 127.592 416.723 127.486 416.969L123.875 425.389C123.769 425.635 123.824 425.925 124.01 426.111L129.326 431.417C128.666 434.949 128.536 438.618 128.994 442.294L123.373 447.202C123.176 447.375 123.104 447.66 123.195 447.913L126.291 456.575C126.381 456.828 126.614 456.993 126.87 456.986L134.173 456.782C136.13 459.865 138.526 462.534 141.235 464.734L140.56 472.41C140.536 472.679 140.677 472.935 140.91 473.047L148.9 476.877C149.134 476.989 149.409 476.932 149.585 476.736L154.602 471.141C157.952 471.846 161.431 471.992 164.914 471.517L169.58 477.458C169.744 477.666 170.015 477.742 170.255 477.647L178.458 474.402C178.698 474.307 178.854 474.063 178.846 473.792L178.636 466.089C181.553 464.031 184.078 461.51 186.157 458.658L193.436 459.389C193.691 459.414 193.933 459.266 194.039 459.02L197.65 450.601Z" fill="url(#paint33_linear_130_603)"/>
<path id="Vector_57" opacity="0.56" d="M168.804 433.815C169.657 435.624 169.937 437.664 169.594 439.686C169.171 442.173 167.855 444.335 165.888 445.775C161.829 448.746 156.227 447.674 153.399 443.384C150.576 439.083 151.576 433.185 155.636 430.214C157.603 428.774 159.986 428.23 162.344 428.682C164.703 429.134 166.757 430.527 168.126 432.606C168.381 432.995 168.608 433.399 168.804 433.815ZM154.852 441.078C154.994 441.38 155.158 441.674 155.346 441.959C157.426 445.114 161.546 445.903 164.533 443.717C165.979 442.659 166.948 441.068 167.258 439.239C167.569 437.409 167.184 435.56 166.179 434.03C165.172 432.502 163.661 431.477 161.926 431.144C160.19 430.812 158.438 431.212 156.991 432.272C154.275 434.259 153.418 438.036 154.852 441.078Z" fill="white"/>
<path id="Vector_58" opacity="0.56" d="M180.583 427.46C180.918 428.17 181.22 428.903 181.492 429.66C182.029 431.162 182.422 432.723 182.661 434.304C182.671 434.375 182.681 434.446 182.692 434.517C182.77 435.068 182.496 435.586 182.049 435.821C181.94 435.878 181.82 435.918 181.694 435.938C181.046 436.038 180.445 435.564 180.346 434.882C180.137 433.404 179.775 431.943 179.272 430.539L179.272 430.538C179.245 430.461 179.216 430.384 179.188 430.308C177.97 426.996 176.016 424.129 173.514 421.89C172.155 420.675 170.633 419.645 168.978 418.832C168.964 418.825 168.951 418.819 168.937 418.812C168.895 418.792 168.855 418.772 168.813 418.753C163.952 416.423 158.526 416.227 153.535 418.201C152.889 418.456 152.261 418.744 151.651 419.063C147.549 421.207 144.301 424.747 142.388 429.206C140.191 434.329 140.019 440.052 141.903 445.321C143.787 450.586 147.501 454.775 152.362 457.106C157.223 459.436 162.649 459.632 167.64 457.657C168.275 457.407 168.895 457.122 169.499 456.807C172.116 455.438 174.418 453.482 176.234 451.067C176.346 450.918 176.484 450.803 176.635 450.725C177.033 450.517 177.528 450.555 177.9 450.867C178.413 451.299 178.501 452.084 178.093 452.626C176.061 455.328 173.485 457.518 170.558 459.049C169.882 459.402 169.188 459.72 168.478 460.001C162.893 462.21 156.823 461.991 151.384 459.384C145.946 456.777 141.788 452.099 139.683 446.199C137.575 440.304 137.768 433.901 140.227 428.17C142.367 423.181 146.001 419.221 150.59 416.822C151.272 416.466 151.975 416.144 152.697 415.858C163.508 411.582 175.541 416.762 180.583 427.46Z" fill="white"/>
</g>
</g>
</g>
</g>
</g>
<defs>
<linearGradient id="paint0_linear_130_603" x1="554.516" y1="638.806" x2="115.365" y2="95.7754" gradientUnits="userSpaceOnUse">
<stop stop-color="#B37CFF"/>
<stop offset="1" stop-color="#0B74EE"/>
</linearGradient>
<linearGradient id="paint1_linear_130_603" x1="484.402" y1="344.707" x2="262.136" y2="326.387" gradientUnits="userSpaceOnUse">
<stop stop-color="#B37CFF"/>
<stop offset="1" stop-color="#0B74EE"/>
</linearGradient>
<linearGradient id="paint2_linear_130_603" x1="410.117" y1="193.521" x2="281.63" y2="152.476" gradientUnits="userSpaceOnUse">
<stop stop-color="#A737D5"/>
<stop offset="1" stop-color="#EF497A"/>
</linearGradient>
<linearGradient id="paint3_linear_130_603" x1="8.17776" y1="181.382" x2="123.456" y2="159.133" gradientUnits="userSpaceOnUse">
<stop stop-color="#A737D5"/>
<stop offset="1" stop-color="#EF497A"/>
</linearGradient>
<linearGradient id="paint4_linear_130_603" x1="331.599" y1="-0.203625" x2="-192.702" y2="946.902" gradientUnits="userSpaceOnUse">
<stop stop-color="#2B3582"/>
<stop offset="1" stop-color="#150E42"/>
</linearGradient>
<linearGradient id="paint5_linear_130_603" x1="225.122" y1="56.7871" x2="126.419" y2="676.817" gradientUnits="userSpaceOnUse">
<stop stop-color="#53D8FF"/>
<stop offset="1" stop-color="#3840F7"/>
</linearGradient>
<linearGradient id="paint6_linear_130_603" x1="175.359" y1="-272.099" x2="193.31" y2="-89.7922" gradientUnits="userSpaceOnUse">
<stop stop-color="#53D8FF"/>
<stop offset="1" stop-color="#3840F7"/>
</linearGradient>
<linearGradient id="paint7_linear_130_603" x1="215.514" y1="-9.83376" x2="172.185" y2="253.33" gradientUnits="userSpaceOnUse">
<stop stop-color="#53D8FF"/>
<stop offset="1" stop-color="#3840F7"/>
</linearGradient>
<linearGradient id="paint8_linear_130_603" x1="345.051" y1="483.415" x2="280.149" y2="317.059" gradientUnits="userSpaceOnUse">
<stop stop-color="#F9B776"/>
<stop offset="1" stop-color="#0B74EE"/>
</linearGradient>
<linearGradient id="paint9_linear_130_603" x1="346.028" y1="1019.12" x2="131.285" y2="-1479.8" gradientUnits="userSpaceOnUse">
<stop stop-color="#F9B776"/>
<stop offset="1" stop-color="#0B74EE"/>
</linearGradient>
<linearGradient id="paint10_linear_130_603" x1="338.376" y1="219.94" x2="311.072" y2="219.94" gradientUnits="userSpaceOnUse">
<stop stop-color="#F9B776"/>
<stop offset="1" stop-color="#0B74EE" stop-opacity="0.717647"/>
</linearGradient>
<linearGradient id="paint11_linear_130_603" x1="291.135" y1="488.138" x2="225.788" y2="388.314" gradientUnits="userSpaceOnUse">
<stop stop-color="#CB236D"/>
<stop offset="1" stop-color="#4C246D"/>
</linearGradient>
<linearGradient id="paint12_linear_130_603" x1="349.657" y1="518.618" x2="277.118" y2="393.786" gradientUnits="userSpaceOnUse">
<stop stop-color="#CB236D"/>
<stop offset="1" stop-color="#4C246D"/>
</linearGradient>
<linearGradient id="paint13_linear_130_603" x1="317.968" y1="260.496" x2="226.577" y2="437.133" gradientUnits="userSpaceOnUse">
<stop stop-color="#CB236D"/>
<stop offset="1" stop-color="#4C246D"/>
</linearGradient>
<linearGradient id="paint14_linear_130_603" x1="308.558" y1="158.754" x2="289.166" y2="158.754" gradientUnits="userSpaceOnUse">
<stop stop-color="#0B74EE"/>
<stop offset="1" stop-color="#F47960"/>
</linearGradient>
<linearGradient id="paint15_linear_130_603" x1="273.62" y1="179.855" x2="376.863" y2="311.73" gradientUnits="userSpaceOnUse">
<stop stop-color="#0B74EE"/>
<stop offset="1" stop-color="#D93C65"/>
</linearGradient>
<linearGradient id="paint16_linear_130_603" x1="194.784" y1="169.858" x2="362.858" y2="265.727" gradientUnits="userSpaceOnUse">
<stop stop-color="#F9B776"/>
<stop offset="1" stop-color="#0B74EE" stop-opacity="0.717647"/>
</linearGradient>
<linearGradient id="paint17_linear_130_603" x1="178.119" y1="199.074" x2="346.193" y2="294.942" gradientUnits="userSpaceOnUse">
<stop stop-color="#F9B776"/>
<stop offset="1" stop-color="#0B74EE"/>
</linearGradient>
<linearGradient id="paint18_linear_130_603" x1="276.26" y1="158.746" x2="314.167" y2="103.557" gradientUnits="userSpaceOnUse">
<stop stop-color="#F9B776"/>
<stop offset="0.605" stop-color="#6D8FBD"/>
<stop offset="1" stop-color="#0B74EE"/>
</linearGradient>
<linearGradient id="paint19_linear_130_603" x1="296.219" y1="119.206" x2="349.895" y2="188.681" gradientUnits="userSpaceOnUse">
<stop stop-color="#2B3582"/>
<stop offset="1" stop-color="#150E42"/>
</linearGradient>
<linearGradient id="paint20_linear_130_603" x1="460.683" y1="-81.1616" x2="384.887" y2="197.483" gradientUnits="userSpaceOnUse">
<stop stop-color="#0B74EE"/>
<stop offset="1" stop-color="#D93C65"/>
</linearGradient>
<linearGradient id="paint21_linear_130_603" x1="440.541" y1="23.2138" x2="348.29" y2="239.305" gradientUnits="userSpaceOnUse">
<stop stop-color="#0B74EE"/>
<stop offset="1" stop-color="#D93C65"/>
</linearGradient>
<linearGradient id="paint22_linear_130_603" x1="431.738" y1="-49.6354" x2="410.348" y2="157.044" gradientUnits="userSpaceOnUse">
<stop stop-color="#0B74EE"/>
<stop offset="1" stop-color="#D93C65"/>
</linearGradient>
<linearGradient id="paint23_linear_130_603" x1="84.3862" y1="459.293" x2="33.9301" y2="358.05" gradientUnits="userSpaceOnUse">
<stop stop-color="#B37CFF"/>
<stop offset="1" stop-color="#0B74EE"/>
</linearGradient>
<linearGradient id="paint24_linear_130_603" x1="7.06822" y1="365.114" x2="4.0713" y2="359.1" gradientUnits="userSpaceOnUse">
<stop stop-color="#0B74EE"/>
<stop offset="1" stop-color="#F895E7"/>
</linearGradient>
<linearGradient id="paint25_linear_130_603" x1="36.0228" y1="310.87" x2="33.9502" y2="306.712" gradientUnits="userSpaceOnUse">
<stop stop-color="#B37CF0" stop-opacity="0.717647"/>
<stop offset="1" stop-color="#0B74EE"/>
</linearGradient>
<linearGradient id="paint26_linear_130_603" x1="129.597" y1="387.987" x2="77.576" y2="283.603" gradientUnits="userSpaceOnUse">
<stop stop-color="#0B74EE"/>
<stop offset="1" stop-color="#F895E7"/>
</linearGradient>
<linearGradient id="paint27_linear_130_603" x1="154.941" y1="388.641" x2="151.981" y2="382.701" gradientUnits="userSpaceOnUse">
<stop stop-color="#B37CFF"/>
<stop offset="1" stop-color="#0B74EE"/>
</linearGradient>
<linearGradient id="paint28_linear_130_603" x1="93.5386" y1="319.727" x2="51.3817" y2="473.334" gradientUnits="userSpaceOnUse">
<stop stop-color="#0B74EE"/>
<stop offset="1" stop-color="#D93C65"/>
</linearGradient>
<linearGradient id="paint29_linear_130_603" x1="194.767" y1="479.173" x2="193.287" y2="476.203" gradientUnits="userSpaceOnUse">
<stop stop-color="#B37CFF"/>
<stop offset="1" stop-color="#0B74EE"/>
</linearGradient>
<linearGradient id="paint30_linear_130_603" x1="164.147" y1="496.161" x2="136.046" y2="439.774" gradientUnits="userSpaceOnUse">
<stop stop-color="#0B74EE"/>
<stop offset="1" stop-color="#F895E7"/>
</linearGradient>
<linearGradient id="paint31_linear_130_603" x1="204.972" y1="442.956" x2="172.609" y2="378.018" gradientUnits="userSpaceOnUse">
<stop stop-color="#0B74EE"/>
<stop offset="1" stop-color="#F895E7"/>
</linearGradient>
<linearGradient id="paint32_linear_130_603" x1="211.619" y1="448.713" x2="209.378" y2="444.215" gradientUnits="userSpaceOnUse">
<stop stop-color="#B37CFF"/>
<stop offset="1" stop-color="#0B74EE"/>
</linearGradient>
<linearGradient id="paint33_linear_130_603" x1="178.729" y1="377.332" x2="136.577" y2="518.422" gradientUnits="userSpaceOnUse">
<stop stop-color="#0B74EE"/>
<stop offset="1" stop-color="#D93C65"/>
</linearGradient>
</defs>
</svg>
